<svg class="animated" id="freepik_stories-astronaut-helmet" xmlns="http://www.w3.org/2000/svg" viewBox="0 0 500 500" version="1.1" xmlns:xlink="http://www.w3.org/1999/xlink" xmlns:svgjs="http://svgjs.com/svgjs"><style>svg#freepik_stories-astronaut-helmet:not(.animated) .animable {opacity: 0;}svg#freepik_stories-astronaut-helmet.animated #freepik--background-complete--inject-200 {animation: 1s 1 forwards cubic-bezier(.36,-0.01,.5,1.38) slideDown,1.5s Infinite  linear floating;animation-delay: 0s,1s;}svg#freepik_stories-astronaut-helmet.animated #freepik--Space--inject-200 {animation: 1s 1 forwards cubic-bezier(.36,-0.01,.5,1.38) slideDown,1.5s Infinite  linear floating;animation-delay: 0s,1s;}svg#freepik_stories-astronaut-helmet.animated #freepik--Stars--inject-200 {animation: 1s 1 forwards cubic-bezier(.36,-0.01,.5,1.38) slideDown,1.5s Infinite  linear floating;animation-delay: 0s,1s;}svg#freepik_stories-astronaut-helmet.animated #freepik--planet-2--inject-200 {animation: 1s 1 forwards cubic-bezier(.36,-0.01,.5,1.38) slideDown,1.5s Infinite  linear floating;animation-delay: 0s,1s;}svg#freepik_stories-astronaut-helmet.animated #freepik--planet-1--inject-200 {animation: 1s 1 forwards cubic-bezier(.36,-0.01,.5,1.38) slideDown,1.5s Infinite  linear floating;animation-delay: 0s,1s;}svg#freepik_stories-astronaut-helmet.animated #freepik--Earth--inject-200 {animation: 1s 1 forwards cubic-bezier(.36,-0.01,.5,1.38) slideDown,1.5s Infinite  linear floating;animation-delay: 0s,1s;}svg#freepik_stories-astronaut-helmet.animated #freepik--astronaut-helmet--inject-200 {animation: 1s 1 forwards cubic-bezier(.36,-0.01,.5,1.38) slideDown,1.5s Infinite  linear floating;animation-delay: 0s,1s;}            @keyframes slideDown {                0% {                    opacity: 0;                    transform: translateY(-30px);                }                100% {                    opacity: 1;                    transform: translateY(0);                }            }                    @keyframes floating {                0% {                    opacity: 1;                    transform: translateY(0px);                }                50% {                    transform: translateY(-10px);                }                100% {                    opacity: 1;                    transform: translateY(0px);                }            }        .animator-hidden { display: none; }</style><g id="freepik--background-complete--inject-200" class="animable animator-hidden" style="transform-origin: 250px 225.885px;"><rect y="382.4" width="500" height="0.25" style="fill: rgb(235, 235, 235); transform-origin: 250px 382.525px;" id="elur9xjzyj3f" class="animable"></rect><rect x="416.78" y="398.49" width="33.12" height="0.25" style="fill: rgb(235, 235, 235); transform-origin: 433.34px 398.615px;" id="elsqf1qbniqvc" class="animable"></rect><rect x="322.53" y="401.21" width="8.69" height="0.25" style="fill: rgb(235, 235, 235); transform-origin: 326.875px 401.335px;" id="eli1ybkmibf6" class="animable"></rect><rect x="396.59" y="389.21" width="19.19" height="0.25" style="fill: rgb(235, 235, 235); transform-origin: 406.185px 389.335px;" id="el6xlaqe7hx8" class="animable"></rect><rect x="52.46" y="390.89" width="43.19" height="0.25" style="fill: rgb(235, 235, 235); transform-origin: 74.055px 391.015px;" id="elesrdpx8c3oo" class="animable"></rect><rect x="104.56" y="390.89" width="6.33" height="0.25" style="fill: rgb(235, 235, 235); transform-origin: 107.725px 391.015px;" id="el9qsidvhrj6" class="animable"></rect><rect x="131.47" y="395.11" width="93.68" height="0.25" style="fill: rgb(235, 235, 235); transform-origin: 178.31px 395.235px;" id="el6edsyjljxfd" class="animable"></rect><path d="M237,337.8H43.91a5.71,5.71,0,0,1-5.7-5.71V60.66A5.71,5.71,0,0,1,43.91,55H237a5.71,5.71,0,0,1,5.71,5.71V332.09A5.71,5.71,0,0,1,237,337.8ZM43.91,55.2a5.46,5.46,0,0,0-5.45,5.46V332.09a5.46,5.46,0,0,0,5.45,5.46H237a5.47,5.47,0,0,0,5.46-5.46V60.66A5.47,5.47,0,0,0,237,55.2Z" style="fill: rgb(235, 235, 235); transform-origin: 140.46px 196.4px;" id="elsjdlvh41z" class="animable"></path><path d="M453.31,337.8H260.21a5.72,5.72,0,0,1-5.71-5.71V60.66A5.72,5.72,0,0,1,260.21,55h193.1A5.71,5.71,0,0,1,459,60.66V332.09A5.71,5.71,0,0,1,453.31,337.8ZM260.21,55.2a5.47,5.47,0,0,0-5.46,5.46V332.09a5.47,5.47,0,0,0,5.46,5.46h193.1a5.47,5.47,0,0,0,5.46-5.46V60.66a5.47,5.47,0,0,0-5.46-5.46Z" style="fill: rgb(235, 235, 235); transform-origin: 356.75px 196.4px;" id="elsmdkd6kx0r" class="animable"></path><polygon points="106.73 81.11 101.33 80.72 106.32 82.82 105.92 88.22 108.03 83.23 113.43 83.63 108.44 81.52 108.83 76.12 106.73 81.11" style="fill: rgb(235, 235, 235); transform-origin: 107.38px 82.17px;" id="elgwi0cuia62a" class="animable"></polygon><polygon points="106.17 81.88 102.07 85.42 107.09 83.38 110.63 87.48 108.59 82.46 112.69 78.92 107.67 80.96 104.13 76.86 106.17 81.88" style="fill: rgb(235, 235, 235); transform-origin: 107.38px 82.17px;" id="elaorg0n4b7sf" class="animable"></polygon><path d="M106.17,81.88a1.24,1.24,0,1,0,1.5-.91A1.24,1.24,0,0,0,106.17,81.88Z" style="fill: rgb(224, 224, 224); transform-origin: 107.375px 82.1743px;" id="elb0q579ci80h" class="animable"></path><polygon points="51.81 195.31 46.41 194.92 51.4 197.03 51 202.43 53.11 197.44 58.51 197.83 53.52 195.73 53.91 190.33 51.81 195.31" style="fill: rgb(235, 235, 235); transform-origin: 52.46px 196.38px;" id="elpacotrjc9tm" class="animable"></polygon><polygon points="51.25 196.09 47.15 199.63 52.17 197.59 55.71 201.68 53.67 196.67 57.77 193.13 52.75 195.17 49.21 191.07 51.25 196.09" style="fill: rgb(235, 235, 235); transform-origin: 52.46px 196.375px;" id="elccqi7svd6fa" class="animable"></polygon><path d="M51.25,196.09a1.24,1.24,0,1,0,1.5-.92A1.24,1.24,0,0,0,51.25,196.09Z" style="fill: rgb(224, 224, 224); transform-origin: 52.4568px 196.375px;" id="elo6u56menjvl" class="animable"></path><polygon points="56.19 259.2 52.04 258.9 55.87 260.51 55.57 264.67 57.19 260.83 61.34 261.13 57.51 259.52 57.81 255.37 56.19 259.2" style="fill: rgb(235, 235, 235); transform-origin: 56.69px 260.02px;" id="el8jej3gwxdbd" class="animable"></polygon><polygon points="55.76 259.79 52.61 262.51 56.47 260.95 59.19 264.1 57.62 260.24 60.77 257.52 56.91 259.09 54.19 255.94 55.76 259.79" style="fill: rgb(235, 235, 235); transform-origin: 56.69px 260.02px;" id="el9ehgqk1ttmq" class="animable"></polygon><path d="M55.76,259.79a1,1,0,1,0,1.15-.7A1,1,0,0,0,55.76,259.79Z" style="fill: rgb(224, 224, 224); transform-origin: 56.7195px 260.072px;" id="elxgh0iz5guq" class="animable"></path><polygon points="233.67 106.81 229.52 106.51 233.35 108.13 233.05 112.28 234.67 108.44 238.82 108.75 234.99 107.13 235.29 102.98 233.67 106.81" style="fill: rgb(235, 235, 235); transform-origin: 234.17px 107.63px;" id="el9dbv9pwmwub" class="animable"></polygon><polygon points="233.24 107.41 230.09 110.13 233.95 108.56 236.67 111.71 235.1 107.85 238.25 105.13 234.39 106.7 231.67 103.55 233.24 107.41" style="fill: rgb(235, 235, 235); transform-origin: 234.17px 107.63px;" id="elsk15wfw8hi" class="animable"></polygon><path d="M233.24,107.41a1,1,0,0,0,1.86.44,1,1,0,1,0-1.86-.44Z" style="fill: rgb(224, 224, 224); transform-origin: 234.238px 107.343px;" id="elogr2zbhh78s" class="animable"></path><polygon points="128.59 183.34 124.44 183.04 128.28 184.66 127.97 188.81 129.59 184.97 133.74 185.28 129.91 183.66 130.21 179.51 128.59 183.34" style="fill: rgb(235, 235, 235); transform-origin: 129.09px 184.16px;" id="elr1f77j1g39d" class="animable"></polygon><polygon points="128.16 183.93 125.01 186.65 128.87 185.09 131.59 188.24 130.02 184.38 133.17 181.66 129.32 183.23 126.6 180.08 128.16 183.93" style="fill: rgb(235, 235, 235); transform-origin: 129.09px 184.16px;" id="elebfi0xtgh1" class="animable"></polygon><path d="M128.17,183.93a1,1,0,0,0,1.85.45,1,1,0,1,0-1.85-.45Z" style="fill: rgb(224, 224, 224); transform-origin: 129.167px 183.858px;" id="elacp2d579u46" class="animable"></path><polygon points="410.52 162.98 406.38 162.68 410.21 164.3 409.91 168.45 411.52 164.62 415.67 164.92 411.84 163.3 412.14 159.15 410.52 162.98" style="fill: rgb(235, 235, 235); transform-origin: 411.025px 163.8px;" id="el4kbz7wb7t45" class="animable"></polygon><polygon points="410.1 163.58 406.95 166.3 410.8 164.73 413.52 167.88 411.95 164.02 415.1 161.3 411.25 162.87 408.53 159.72 410.1 163.58" style="fill: rgb(235, 235, 235); transform-origin: 411.025px 163.8px;" id="elzeeuk4r3zcp" class="animable"></polygon><path d="M410.1,163.58a1,1,0,1,0,1.15-.71A1,1,0,0,0,410.1,163.58Z" style="fill: rgb(224, 224, 224); transform-origin: 411.062px 163.852px;" id="eld83u1jm27o5" class="animable"></path><polygon points="368.07 84.83 363.92 84.53 367.75 86.15 367.45 90.3 369.07 86.46 373.22 86.77 369.38 85.15 369.69 81 368.07 84.83" style="fill: rgb(235, 235, 235); transform-origin: 368.57px 85.65px;" id="el29agd6xuc0x" class="animable"></polygon><polygon points="367.64 85.42 364.49 88.14 368.35 86.58 371.07 89.73 369.5 85.87 372.65 83.15 368.79 84.72 366.07 81.57 367.64 85.42" style="fill: rgb(235, 235, 235); transform-origin: 368.57px 85.65px;" id="elycyafmnt51g" class="animable"></polygon><path d="M367.64,85.42a1,1,0,0,0,1.86.45,1,1,0,0,0-1.86-.45Z" style="fill: rgb(224, 224, 224); transform-origin: 368.57px 85.645px;" id="eljxichj25its" class="animable"></path><polygon points="209.76 55.3 204.36 54.91 209.34 57.02 208.95 62.41 211.06 57.43 216.46 57.82 211.47 55.72 211.86 50.31 209.76 55.3" style="fill: rgb(235, 235, 235); transform-origin: 210.41px 56.36px;" id="elndzwjnw6ci" class="animable"></polygon><polygon points="209.2 56.07 205.1 59.61 210.12 57.58 213.66 61.67 211.62 56.66 215.71 53.12 210.7 55.16 207.16 51.06 209.2 56.07" style="fill: rgb(235, 235, 235); transform-origin: 210.405px 56.365px;" id="elsn4klp9zsxh" class="animable"></polygon><path d="M209.2,56.07a1.24,1.24,0,1,0,1.5-.91A1.24,1.24,0,0,0,209.2,56.07Z" style="fill: rgb(224, 224, 224); transform-origin: 210.405px 56.3643px;" id="eleobd23n5up6" class="animable"></path><polygon points="105.78 348.2 100.38 347.81 105.36 349.91 104.97 355.31 107.08 350.32 112.47 350.72 107.49 348.61 107.88 343.21 105.78 348.2" style="fill: rgb(235, 235, 235); transform-origin: 106.425px 349.26px;" id="el20mxpm0sy6f" class="animable"></polygon><polygon points="105.22 348.97 101.12 352.51 106.13 350.47 109.67 354.57 107.64 349.55 111.73 346.01 106.72 348.05 103.18 343.95 105.22 348.97" style="fill: rgb(235, 235, 235); transform-origin: 106.425px 349.26px;" id="el96trt5qu6b4" class="animable"></polygon><path d="M105.22,349a1.24,1.24,0,1,0,1.5-.91A1.24,1.24,0,0,0,105.22,349Z" style="fill: rgb(224, 224, 224); transform-origin: 106.425px 349.294px;" id="elnnt4w7cjdp9" class="animable"></path><polygon points="429.34 320.04 424.76 319.7 428.99 321.49 428.66 326.06 430.44 321.84 435.02 322.17 430.79 320.39 431.13 315.81 429.34 320.04" style="fill: rgb(235, 235, 235); transform-origin: 429.89px 320.935px;" id="elhrnrizozzrc" class="animable"></polygon><polygon points="428.87 320.69 425.39 323.69 429.65 321.96 432.65 325.44 430.92 321.18 434.39 318.18 430.14 319.91 427.14 316.44 428.87 320.69" style="fill: rgb(235, 235, 235); transform-origin: 429.89px 320.94px;" id="elooir2kaml2" class="animable"></polygon><path d="M428.87,320.69a1,1,0,1,0,2,.49,1,1,0,0,0-2-.49Z" style="fill: rgb(224, 224, 224); transform-origin: 429.869px 320.939px;" id="elphikmypx8ie" class="animable"></path><polygon points="117.71 260.07 113.13 259.74 117.36 261.52 117.03 266.1 118.81 261.87 123.39 262.2 119.16 260.42 119.49 255.84 117.71 260.07" style="fill: rgb(235, 235, 235); transform-origin: 118.26px 260.97px;" id="elf0w54jmeama" class="animable"></polygon><polygon points="117.23 260.72 113.76 263.72 118.01 261.99 121.01 265.47 119.28 261.22 122.76 258.21 118.5 259.94 115.5 256.47 117.23 260.72" style="fill: rgb(235, 235, 235); transform-origin: 118.26px 260.97px;" id="elssdd3wgb5mo" class="animable"></polygon><path d="M117.24,260.72a1,1,0,1,0,2,.49,1,1,0,0,0-2-.49Z" style="fill: rgb(224, 224, 224); transform-origin: 118.24px 260.967px;" id="el51oxotrd8z8" class="animable"></path><polygon points="55.09 68.55 50.51 68.22 54.74 70 54.41 74.58 56.19 70.35 60.77 70.69 56.54 68.9 56.87 64.32 55.09 68.55" style="fill: rgb(235, 235, 235); transform-origin: 55.64px 69.45px;" id="elsqse09jenon" class="animable"></polygon><polygon points="54.61 69.2 51.14 72.21 55.39 70.48 58.39 73.95 56.66 69.7 60.14 66.7 55.89 68.43 52.89 64.95 54.61 69.2" style="fill: rgb(235, 235, 235); transform-origin: 55.64px 69.45px;" id="elbkeomg1k8av" class="animable"></polygon><path d="M54.62,69.21a1,1,0,1,0,1.27-.78A1,1,0,0,0,54.62,69.21Z" style="fill: rgb(224, 224, 224); transform-origin: 55.604px 69.3882px;" id="eln3hq27hwu38" class="animable"></path><polygon points="443.98 275.38 439.4 275.05 443.63 276.84 443.29 281.41 445.08 277.19 449.66 277.52 445.43 275.73 445.76 271.16 443.98 275.38" style="fill: rgb(235, 235, 235); transform-origin: 444.53px 276.285px;" id="el5pzpa0bjn1" class="animable"></polygon><polygon points="443.5 276.04 440.03 279.04 444.28 277.31 447.28 280.78 445.55 276.53 449.03 273.53 444.77 275.26 441.77 271.79 443.5 276.04" style="fill: rgb(235, 235, 235); transform-origin: 444.53px 276.285px;" id="el6t34ebk6nb3" class="animable"></polygon><path d="M443.51,276a1,1,0,1,0,1.26-.78A1.05,1.05,0,0,0,443.51,276Z" style="fill: rgb(224, 224, 224); transform-origin: 444.493px 276.187px;" id="el5s0jwfiw53k" class="animable"></path><polygon points="316.88 181.29 312.3 180.95 316.53 182.74 316.2 187.32 317.98 183.09 322.56 183.42 318.33 181.64 318.66 177.06 316.88 181.29" style="fill: rgb(235, 235, 235); transform-origin: 317.43px 182.19px;" id="el995wgpym82b" class="animable"></polygon><polygon points="316.4 181.94 312.93 184.94 317.18 183.21 320.18 186.69 318.46 182.43 321.93 179.43 317.68 181.16 314.68 177.69 316.4 181.94" style="fill: rgb(235, 235, 235); transform-origin: 317.43px 182.19px;" id="elg5n07vlmu5j" class="animable"></polygon><path d="M316.41,181.94a1,1,0,1,0,1.27-.77A1,1,0,0,0,316.41,181.94Z" style="fill: rgb(224, 224, 224); transform-origin: 317.392px 182.128px;" id="elparxt2zmxzc" class="animable"></path><polygon points="338.56 316.26 333.99 315.93 338.21 317.71 337.88 322.29 339.66 318.06 344.24 318.4 340.01 316.61 340.35 312.04 338.56 316.26" style="fill: rgb(235, 235, 235); transform-origin: 339.115px 317.165px;" id="el7syjog94nd2" class="animable"></polygon><polygon points="338.09 316.92 334.62 319.92 338.87 318.19 341.87 321.66 340.14 317.41 343.61 314.41 339.36 316.14 336.36 312.67 338.09 316.92" style="fill: rgb(235, 235, 235); transform-origin: 339.115px 317.165px;" id="el3tdcq1zpt4o" class="animable"></polygon><path d="M338.09,316.92a1,1,0,1,0,1.27-.78A1,1,0,0,0,338.09,316.92Z" style="fill: rgb(224, 224, 224); transform-origin: 339.074px 317.098px;" id="el5mrbdqlpz6h" class="animable"></path><polygon points="229.79 157.77 225.21 157.44 229.44 159.22 229.11 163.8 230.89 159.57 235.47 159.91 231.24 158.12 231.57 153.54 229.79 157.77" style="fill: rgb(235, 235, 235); transform-origin: 230.34px 158.67px;" id="elycgsj7mf3a" class="animable"></polygon><polygon points="229.31 158.43 225.84 161.43 230.09 159.7 233.09 163.17 231.37 158.92 234.84 155.92 230.59 157.65 227.59 154.17 229.31 158.43" style="fill: rgb(235, 235, 235); transform-origin: 230.34px 158.67px;" id="elmjvk8nnrzij" class="animable"></polygon><path d="M229.32,158.43a1,1,0,1,0,1.27-.78A1.05,1.05,0,0,0,229.32,158.43Z" style="fill: rgb(224, 224, 224); transform-origin: 230.304px 158.614px;" id="elcrq3syztior" class="animable"></path><polygon points="436.13 184.34 430.73 183.94 435.72 186.05 435.32 191.45 437.43 186.46 442.83 186.85 437.84 184.75 438.24 179.35 436.13 184.34" style="fill: rgb(235, 235, 235); transform-origin: 436.78px 185.4px;" id="el5muhvdx7tn6" class="animable"></polygon><polygon points="435.57 185.1 431.47 188.65 436.49 186.61 440.03 190.7 437.99 185.69 442.09 182.15 437.07 184.19 433.53 180.09 435.57 185.1" style="fill: rgb(235, 235, 235); transform-origin: 436.78px 185.395px;" id="elu2esbk2eshl" class="animable"></polygon><path d="M435.58,185.11a1.22,1.22,0,0,0,.91,1.49,1.24,1.24,0,1,0-.91-1.49Z" style="fill: rgb(224, 224, 224); transform-origin: 436.784px 185.396px;" id="elthnsw7x6ljj" class="animable"></path><polygon points="405.53 67.34 400.13 66.95 405.12 69.05 404.73 74.45 406.83 69.46 412.23 69.86 407.24 67.75 407.64 62.35 405.53 67.34" style="fill: rgb(235, 235, 235); transform-origin: 406.18px 68.4px;" id="el67vzw9bpu55" class="animable"></polygon><polygon points="404.97 68.11 400.88 71.65 405.89 69.61 409.43 73.71 407.39 68.69 411.49 65.15 406.47 67.19 402.93 63.09 404.97 68.11" style="fill: rgb(235, 235, 235); transform-origin: 406.185px 68.4px;" id="elri741qq7cba" class="animable"></polygon><path d="M405,68.11a1.24,1.24,0,1,0,1.49-.91A1.24,1.24,0,0,0,405,68.11Z" style="fill: rgb(224, 224, 224); transform-origin: 406.204px 68.4066px;" id="el06pxlym6y36t" class="animable"></path><polygon points="335.97 205.4 330.57 205.01 335.56 207.11 335.16 212.51 337.27 207.52 342.67 207.92 337.68 205.81 338.07 200.41 335.97 205.4" style="fill: rgb(235, 235, 235); transform-origin: 336.62px 206.46px;" id="el4spznc3wv6e" class="animable"></polygon><polygon points="335.41 206.17 331.31 209.71 336.33 207.67 339.87 211.77 337.83 206.75 341.93 203.21 336.91 205.25 333.37 201.16 335.41 206.17" style="fill: rgb(235, 235, 235); transform-origin: 336.62px 206.465px;" id="elsn7ycho5s3d" class="animable"></polygon><path d="M335.41,206.17a1.24,1.24,0,1,0,1.5-.91A1.24,1.24,0,0,0,335.41,206.17Z" style="fill: rgb(224, 224, 224); transform-origin: 336.615px 206.464px;" id="elea1tif9gj3t" class="animable"></path><polygon points="207.4 258.86 202 258.46 206.99 260.57 206.59 265.97 208.7 260.98 214.1 261.37 209.11 259.27 209.5 253.87 207.4 258.86" style="fill: rgb(235, 235, 235); transform-origin: 208.05px 259.92px;" id="elarl4x9tf2fi" class="animable"></polygon><polygon points="206.84 259.63 202.74 263.17 207.76 261.13 211.3 265.23 209.26 260.21 213.35 256.67 208.34 258.71 204.8 254.61 206.84 259.63" style="fill: rgb(235, 235, 235); transform-origin: 208.045px 259.92px;" id="el2do8h55p8b8" class="animable"></polygon><path d="M206.84,259.63a1.24,1.24,0,1,0,1.5-.92A1.24,1.24,0,0,0,206.84,259.63Z" style="fill: rgb(224, 224, 224); transform-origin: 208.047px 259.915px;" id="elvrdvv8d7rs" class="animable"></path><g id="elvp531ujsgm"><circle cx="328.91" cy="92.84" r="17.02" style="fill: rgb(245, 245, 245); transform-origin: 328.91px 92.84px; transform: rotate(-82.23deg);" class="animable" id="elb645mko12i"></circle></g><g id="eljsod1s7yr4d"><circle cx="81.64" cy="154.17" r="17.02" style="fill: rgb(245, 245, 245); transform-origin: 81.64px 154.17px; transform: rotate(-82.37deg);" class="animable" id="eleson37n55r5"></circle></g><g id="elumaje5p1bhq"><circle cx="273.67" cy="269.29" r="17.02" style="fill: rgb(245, 245, 245); transform-origin: 273.67px 269.29px; transform: rotate(-82.37deg);" class="animable" id="elz0uozy56j0k"></circle></g><path d="M54.13,111.79a6.34,6.34,0,1,0,7.64-4.68A6.33,6.33,0,0,0,54.13,111.79Z" style="fill: rgb(245, 245, 245); transform-origin: 60.2935px 113.275px;" id="el19dnel0p951" class="animable"></path><path d="M234.44,308.9a9.76,9.76,0,1,0,11.76-7.2A9.75,9.75,0,0,0,234.44,308.9Z" style="fill: rgb(245, 245, 245); transform-origin: 243.927px 311.191px;" id="el7jfwyblakw3" class="animable"></path><path d="M390.09,285.31a9.76,9.76,0,1,0,11.77-7.2A9.75,9.75,0,0,0,390.09,285.31Z" style="fill: rgb(245, 245, 245); transform-origin: 399.578px 287.598px;" id="elszzl0mutu7j" class="animable"></path><path d="M229,206.13a9.75,9.75,0,1,0,11.76-7.2A9.75,9.75,0,0,0,229,206.13Z" style="fill: rgb(245, 245, 245); transform-origin: 238.48px 208.41px;" id="elhnzk59bt78i" class="animable"></path></g><g id="freepik--Space--inject-200" class="animable animator-hidden" style="transform-origin: 256.316px 244.137px;"><path d="M153.48,388.65c43.58,12.1,99.91,19.46,148.82,25.67,49.3,5.23,91.19,9.3,114.65-7.72,14.69-10.38,21.87-28.15,23.53-53.07,3.17-54.83-20-152.14-80.84-222.22-27.94-31.68-60.57-52-93.45-59a131.86,131.86,0,0,0-13.47-2.16c-31.23-3.42-61.81,5.17-88,23.29-29,19.9-52.63,51.29-68.75,87.42C72.29,235.57,67,286.71,76,321.36,85.43,357,109.11,376.07,153.48,388.65Z" style="fill: rgb(38, 50, 56); transform-origin: 256.316px 244.137px;" id="elgvm54kxyjma" class="animable"></path><g id="ely8nmsv6d7g"><path d="M152.38,139.88c15.11,7,32,7.92,21.49,37.69-10.41,30.22-10.58,50.81,8.36,53.65,19,3.28,33.88,29.94,48.47,24.15,14.57-6.21-30.14-9.5-38.69-43.32-4.37-17.85-8.73-42.29-2.61-69.44,6.18-26.64,22.85-56,61.82-71.84l1.5-.58c-31.23-3.42-61.81,5.17-88,23.29C148.87,115,141.66,135.11,152.38,139.88Z" style="fill: rgb(255, 255, 255); opacity: 0.1; transform-origin: 200.005px 162.821px;" class="animable" id="el9hvq3pfnmq9"></path></g><g id="el8iuive1rq45"><path d="M226.07,157.13c6.34,29.13,20.37,53.38,44.62,67.18,24.05,14.16,58.32,17.87,100.64,14.14,43-2.71,59.53,35.2,49.05,51.37-8.2,13-48.88,0-86.56-4.68-37.43-4.56,12.75,21.54,34.68,18.9,21.82-2.9,21.9-3.52,50.58,21.7,8.36,7.83,15.52,18.61,21.4,27.79,3.17-54.83-20-152.14-80.84-222.22-27.94-31.68-60.57-52-93.45-59C233.48,87.33,219.5,127,226.07,157.13Z" style="fill: rgb(255, 255, 255); opacity: 0.1; transform-origin: 332.625px 212.92px;" class="animable" id="el9b64q01gczs"></path></g><g id="el87aktxg514s"><path d="M394.33,367.63c9.05-12.54-15.33-13.34-29.54-11-13.55.53-63.57-1.94-94.55-13.6-30.67-12.37,1.42,18.51,16.08,13.26s18.66,6.39,38.4,12.53c19.65,6.65,29.18-2.27,38.64-.74S389.62,374.1,394.33,367.63Z" style="fill: rgb(255, 255, 255); opacity: 0.1; transform-origin: 326.855px 355.698px;" class="animable" id="elkr4x83ufpql"></path></g><g id="el0mev5w56t9kr"><path d="M100.72,261.58c10.16-19.75,14,10.33,17.61,24.24,3.44,13.48,28.82,17.23,27.06,25.14-2,7.37-16.84,2.81-18.91-2S121.9,291.66,113,296.18s-16.48-1.61-11.46-15.65S96.39,270,100.72,261.58Z" style="fill: rgb(255, 255, 255); opacity: 0.1; transform-origin: 122.547px 284.945px;" class="animable" id="elbt575b57e37"></path></g></g><g id="freepik--Stars--inject-200" class="animable animator-active" style="transform-origin: 248.745px 232.205px;"><polygon points="187.06 130.83 187.98 129.58 186.71 130.47 186.48 128.93 186.2 130.46 184.95 129.54 185.84 130.81 184.3 131.04 185.83 131.32 184.91 132.57 186.19 131.68 186.42 133.22 186.69 131.69 187.94 132.61 187.05 131.34 188.59 131.1 187.06 130.83" style="fill: #1E368C; transform-origin: 186.445px 131.075px;" id="elk8tn2wly3d" class="animable"></polygon><polygon points="380.51 324.79 381.44 323.54 380.16 324.43 379.93 322.89 379.66 324.42 378.41 323.5 379.29 324.77 377.76 325 379.29 325.28 378.36 326.53 379.64 325.64 379.87 327.18 380.14 325.64 381.39 326.57 380.51 325.29 382.04 325.06 380.51 324.79" style="fill: #1E368C; transform-origin: 379.9px 325.035px;" id="elvtal6w5c82h" class="animable"></polygon><polygon points="259.8 84.98 260.72 83.73 259.44 84.61 259.21 83.08 258.94 84.61 257.69 83.68 258.58 84.96 257.04 85.19 258.57 85.46 257.64 86.71 258.92 85.83 259.15 87.36 259.43 85.83 260.68 86.76 259.79 85.48 261.32 85.25 259.8 84.98" style="fill: #1E368C; transform-origin: 259.18px 85.22px;" id="elzorg2zo6yhe" class="animable"></polygon><polygon points="166.75 164.63 168.91 166.22 167.38 164.03 170.03 163.63 167.39 163.16 168.98 161 166.78 162.53 166.39 159.88 165.91 162.52 163.76 160.93 165.29 163.13 162.64 163.52 165.28 164 163.69 166.15 165.88 164.62 166.28 167.27 166.75 164.63" style="fill: #1E368C; transform-origin: 166.335px 163.575px;" id="elv3chria61w" class="animable"></polygon><polygon points="133.86 136.51 135.45 134.36 133.25 135.89 132.86 133.24 132.38 135.88 130.23 134.29 131.76 136.48 129.11 136.88 131.75 137.35 130.16 139.51 132.35 137.98 132.75 140.63 133.22 137.99 135.38 139.58 133.85 137.38 136.5 136.99 133.86 136.51" style="fill: #1E368C; transform-origin: 132.805px 136.935px;" id="elhe9zx3gh5oo" class="animable"></polygon><polygon points="238.79 373.11 240.38 370.95 238.19 372.48 237.79 369.83 237.31 372.47 235.16 370.88 236.69 373.08 234.04 373.47 236.68 373.95 235.09 376.1 237.29 374.57 237.68 377.22 238.16 374.58 240.31 376.17 238.78 373.98 241.43 373.58 238.79 373.11" style="fill: #1E368C; transform-origin: 237.735px 373.525px;" id="el038huyeuh1wq" class="animable"></polygon><polygon points="280.65 287.9 282.24 285.75 280.04 287.28 279.64 284.63 279.17 287.27 277.02 285.68 278.55 287.88 275.9 288.27 278.54 288.75 276.94 290.9 279.14 289.37 279.54 292.02 280.01 289.38 282.17 290.97 280.64 288.78 283.28 288.38 280.65 287.9" style="fill: #1E368C; transform-origin: 279.59px 288.325px;" id="elwny2tvb0f6i" class="animable"></polygon><polygon points="159.16 322.89 160.75 320.74 158.56 322.26 158.16 319.62 157.69 322.25 155.53 320.66 157.06 322.86 154.41 323.26 157.05 323.73 155.46 325.88 157.66 324.35 158.06 327 158.53 324.37 160.68 325.96 159.15 323.76 161.8 323.36 159.16 322.89" style="fill: #1E368C; transform-origin: 158.105px 323.31px;" id="el5ygrfxmdgcy" class="animable"></polygon><polygon points="244.63 181.47 247.35 177.79 243.59 180.4 242.91 175.87 242.1 180.38 238.42 177.66 241.03 181.42 236.5 182.1 241.01 182.91 238.29 186.59 242.05 183.97 242.73 188.5 243.54 184 247.22 186.72 244.61 182.96 249.13 182.28 244.63 181.47" style="fill: #1E368C; transform-origin: 242.815px 182.185px;" id="el8nigch3oarl" class="animable"></polygon><polygon points="327.21 374.3 329.93 370.61 326.17 373.23 325.49 368.7 324.68 373.21 321 370.49 323.61 374.25 319.08 374.93 323.59 375.73 320.87 379.42 324.63 376.8 325.31 381.33 326.12 376.82 329.8 379.54 327.19 375.78 331.71 375.1 327.21 374.3" style="fill: #1E368C; transform-origin: 325.395px 375.015px;" id="el9vbx27oxpzo" class="animable"></polygon><polygon points="174.73 269.83 177.45 266.15 173.69 268.76 173.01 264.24 172.2 268.74 168.52 266.02 171.13 269.78 166.6 270.46 171.11 271.27 168.39 274.95 172.15 272.34 172.83 276.87 173.64 272.36 177.32 275.08 174.71 271.32 179.24 270.64 174.73 269.83" style="fill: #1E368C; transform-origin: 172.92px 270.555px;" id="el5nr9pbk1vj" class="animable"></polygon><polygon points="395.31 241.18 399.84 240.5 395.33 239.69 398.05 236 394.29 238.62 393.61 234.09 392.8 238.6 389.12 235.88 391.73 239.63 387.21 240.31 391.71 241.12 388.99 244.81 392.75 242.19 393.43 246.72 394.24 242.21 397.92 244.93 395.31 241.18" style="fill: #1E368C; transform-origin: 393.525px 240.405px;" id="el4ydmlnajufl" class="animable"></polygon><polygon points="105.77 224.5 108.49 220.82 104.73 223.43 104.06 218.91 103.25 223.41 99.56 220.69 102.18 224.45 97.65 225.13 102.16 225.94 99.44 229.62 103.2 227.01 103.88 231.54 104.68 227.03 108.37 229.75 105.75 225.99 110.28 225.31 105.77 224.5" style="fill: #1E368C; transform-origin: 103.965px 225.225px;" id="el5486brsltsn" class="animable"></polygon><g id="ele5fl4pgu3qd"><g style="opacity: 0.4; transform-origin: 248.745px 232.205px;" class="animable" id="eldky3mtgjjnu"><polygon points="187.06 130.83 187.98 129.58 186.71 130.47 186.48 128.93 186.2 130.46 184.95 129.54 185.84 130.81 184.3 131.04 185.83 131.32 184.91 132.57 186.19 131.68 186.42 133.22 186.69 131.69 187.94 132.61 187.05 131.34 188.59 131.1 187.06 130.83" style="fill: rgb(255, 255, 255); transform-origin: 186.445px 131.075px;" id="elf5lh5bame5" class="animable"></polygon><polygon points="380.51 324.79 381.44 323.54 380.16 324.43 379.93 322.89 379.66 324.42 378.41 323.5 379.29 324.77 377.76 325 379.29 325.28 378.36 326.53 379.64 325.64 379.87 327.18 380.14 325.64 381.39 326.57 380.51 325.29 382.04 325.06 380.51 324.79" style="fill: rgb(255, 255, 255); transform-origin: 379.9px 325.035px;" id="elwyywt11tba" class="animable"></polygon><polygon points="259.8 84.98 260.72 83.73 259.44 84.61 259.21 83.08 258.94 84.61 257.69 83.68 258.58 84.96 257.04 85.19 258.57 85.46 257.64 86.71 258.92 85.83 259.15 87.36 259.43 85.83 260.68 86.76 259.79 85.48 261.32 85.25 259.8 84.98" style="fill: rgb(255, 255, 255); transform-origin: 259.18px 85.22px;" id="elvqd4p9uhsdc" class="animable"></polygon><polygon points="166.75 164.63 168.91 166.22 167.38 164.03 170.03 163.63 167.39 163.16 168.98 161 166.78 162.53 166.39 159.88 165.91 162.52 163.76 160.93 165.29 163.13 162.64 163.52 165.28 164 163.69 166.15 165.88 164.62 166.28 167.27 166.75 164.63" style="fill: rgb(255, 255, 255); transform-origin: 166.335px 163.575px;" id="el9x206ftdlsg" class="animable"></polygon><polygon points="133.86 136.51 135.45 134.36 133.25 135.89 132.86 133.24 132.38 135.88 130.23 134.29 131.76 136.48 129.11 136.88 131.75 137.35 130.16 139.51 132.35 137.98 132.75 140.63 133.22 137.99 135.38 139.58 133.85 137.38 136.5 136.99 133.86 136.51" style="fill: rgb(255, 255, 255); transform-origin: 132.805px 136.935px;" id="el5wrhigifrs6" class="animable"></polygon><polygon points="238.79 373.11 240.38 370.95 238.19 372.48 237.79 369.83 237.31 372.47 235.16 370.88 236.69 373.08 234.04 373.47 236.68 373.95 235.09 376.1 237.29 374.57 237.68 377.22 238.16 374.58 240.31 376.17 238.78 373.98 241.43 373.58 238.79 373.11" style="fill: rgb(255, 255, 255); transform-origin: 237.735px 373.525px;" id="elmf3tylfpwjb" class="animable"></polygon><polygon points="280.65 287.9 282.24 285.75 280.04 287.28 279.64 284.63 279.17 287.27 277.02 285.68 278.55 287.88 275.9 288.27 278.54 288.75 276.94 290.9 279.14 289.37 279.54 292.02 280.01 289.38 282.17 290.97 280.64 288.78 283.28 288.38 280.65 287.9" style="fill: rgb(255, 255, 255); transform-origin: 279.59px 288.325px;" id="elsq3po7ou1zj" class="animable"></polygon><polygon points="159.16 322.89 160.75 320.74 158.56 322.26 158.16 319.62 157.69 322.25 155.53 320.66 157.06 322.86 154.41 323.26 157.05 323.73 155.46 325.88 157.66 324.35 158.06 327 158.53 324.37 160.68 325.96 159.15 323.76 161.8 323.36 159.16 322.89" style="fill: rgb(255, 255, 255); transform-origin: 158.105px 323.31px;" id="eltf15ioev3pl" class="animable"></polygon><polygon points="244.63 181.47 247.35 177.79 243.59 180.4 242.91 175.87 242.1 180.38 238.42 177.66 241.03 181.42 236.5 182.1 241.01 182.91 238.29 186.59 242.05 183.97 242.73 188.5 243.54 184 247.22 186.72 244.61 182.96 249.13 182.28 244.63 181.47" style="fill: rgb(255, 255, 255); transform-origin: 242.815px 182.185px;" id="elc6ks51k092n" class="animable"></polygon><polygon points="327.21 374.3 329.93 370.61 326.17 373.23 325.49 368.7 324.68 373.21 321 370.49 323.61 374.25 319.08 374.93 323.59 375.73 320.87 379.42 324.63 376.8 325.31 381.33 326.12 376.82 329.8 379.54 327.19 375.78 331.71 375.1 327.21 374.3" style="fill: rgb(255, 255, 255); transform-origin: 325.395px 375.015px;" id="elnvyduup2if" class="animable"></polygon><polygon points="174.73 269.83 177.45 266.15 173.69 268.76 173.01 264.24 172.2 268.74 168.52 266.02 171.13 269.78 166.6 270.46 171.11 271.27 168.39 274.95 172.15 272.34 172.83 276.87 173.64 272.36 177.32 275.08 174.71 271.32 179.24 270.64 174.73 269.83" style="fill: rgb(255, 255, 255); transform-origin: 172.92px 270.555px;" id="elgy05kdmlnnd" class="animable"></polygon><polygon points="395.31 241.18 399.84 240.5 395.33 239.69 398.05 236 394.29 238.62 393.61 234.09 392.8 238.6 389.12 235.88 391.73 239.63 387.21 240.31 391.71 241.12 388.99 244.81 392.75 242.19 393.43 246.72 394.24 242.21 397.92 244.93 395.31 241.18" style="fill: rgb(255, 255, 255); transform-origin: 393.525px 240.405px;" id="elkc632znkzl" class="animable"></polygon><polygon points="105.77 224.5 108.49 220.82 104.73 223.43 104.06 218.91 103.25 223.41 99.56 220.69 102.18 224.45 97.65 225.13 102.16 225.94 99.44 229.62 103.2 227.01 103.88 231.54 104.68 227.03 108.37 229.75 105.75 225.99 110.28 225.31 105.77 224.5" style="fill: rgb(255, 255, 255); transform-origin: 103.965px 225.225px;" id="ela6ka53laph" class="animable"></polygon></g></g><path d="M186.74,131.38a.42.42,0,0,0-.59-.61.43.43,0,0,0,0,.6A.42.42,0,0,0,186.74,131.38Z" style="fill: #1E368C; transform-origin: 186.449px 131.074px;" id="el2q6g9qjcb82" class="animable"></path><path d="M380.2,325.34a.44.44,0,0,0,0-.61.43.43,0,0,0-.62.6A.44.44,0,0,0,380.2,325.34Z" style="fill: #1E368C; transform-origin: 379.891px 325.031px;" id="elakyo9zjli8" class="animable"></path><path d="M259.48,85.53a.43.43,0,1,0-.6,0A.43.43,0,0,0,259.48,85.53Z" style="fill: #1E368C; transform-origin: 259.18px 85.222px;" id="elws4ajvqxxin" class="animable"></path><path d="M166.85,164.1a.74.74,0,0,0-1-1,.74.74,0,1,0,1,1Z" style="fill: #1E368C; transform-origin: 166.196px 163.754px;" id="elygr5bajslh" class="animable"></path><path d="M133.32,137.46a.74.74,0,0,0,0-1,.74.74,0,0,0-1.05,1A.74.74,0,0,0,133.32,137.46Z" style="fill: #1E368C; transform-origin: 132.836px 137.003px;" id="el5wbp7bxt8y2" class="animable"></path><path d="M238.25,374.05a.73.73,0,0,0,0-1,.74.74,0,1,0-1,1A.73.73,0,0,0,238.25,374.05Z" style="fill: #1E368C; transform-origin: 237.652px 373.452px;" id="elz8lve12h6j" class="animable"></path><path d="M280.1,288.85a.73.73,0,0,0,0-1,.74.74,0,0,0-1.06,1A.73.73,0,0,0,280.1,288.85Z" style="fill: #1E368C; transform-origin: 279.608px 288.391px;" id="elru3x110c3wi" class="animable"></path><path d="M158.62,323.84a.73.73,0,0,0,0-1,.73.73,0,1,0,0,1Z" style="fill: #1E368C; transform-origin: 158.088px 323.34px;" id="elisv0j7n80g" class="animable"></path><path d="M243.7,183.09a1.26,1.26,0,1,0-1.76-1.8,1.24,1.24,0,0,0,0,1.77A1.26,1.26,0,0,0,243.7,183.09Z" style="fill: #1E368C; transform-origin: 242.845px 182.162px;" id="el789zqtnaji5" class="animable"></path><path d="M326.28,375.92a1.26,1.26,0,1,0-1.78,0A1.26,1.26,0,0,0,326.28,375.92Z" style="fill: #1E368C; transform-origin: 325.39px 375.028px;" id="el3i4fw6wed7k" class="animable"></path><path d="M173.8,271.45a1.26,1.26,0,1,0-1.78,0A1.25,1.25,0,0,0,173.8,271.45Z" style="fill: #1E368C; transform-origin: 172.91px 270.56px;" id="el6osekkfpdoj" class="animable"></path><path d="M394.4,241.31a1.26,1.26,0,1,0-1.78,0A1.25,1.25,0,0,0,394.4,241.31Z" style="fill: #1E368C; transform-origin: 393.51px 240.42px;" id="elvo3vam6weue" class="animable"></path><path d="M104.84,226.12a1.26,1.26,0,1,0-1.78,0A1.26,1.26,0,0,0,104.84,226.12Z" style="fill: #1E368C; transform-origin: 103.95px 225.228px;" id="elldsop9a67ba" class="animable"></path><g id="eldga4483hqe"><g style="opacity: 0.8; transform-origin: 248.73px 230.54px;" class="animable" id="el7oz82l3ks44"><path d="M186.74,131.38a.42.42,0,0,0-.59-.61.43.43,0,0,0,0,.6A.42.42,0,0,0,186.74,131.38Z" style="fill: rgb(255, 255, 255); transform-origin: 186.449px 131.074px;" id="el6ogm9rve0ov" class="animable"></path><path d="M380.2,325.34a.44.44,0,0,0,0-.61.43.43,0,0,0-.62.6A.44.44,0,0,0,380.2,325.34Z" style="fill: rgb(255, 255, 255); transform-origin: 379.891px 325.031px;" id="elp874hp2es8" class="animable"></path><path d="M259.48,85.53a.43.43,0,1,0-.6,0A.43.43,0,0,0,259.48,85.53Z" style="fill: rgb(255, 255, 255); transform-origin: 259.18px 85.222px;" id="elm35sb5jv2rr" class="animable"></path><path d="M166.85,164.1a.74.74,0,0,0-1-1,.74.74,0,1,0,1,1Z" style="fill: rgb(255, 255, 255); transform-origin: 166.196px 163.754px;" id="elmrww03zng8j" class="animable"></path><path d="M133.32,137.46a.74.74,0,0,0,0-1,.74.74,0,0,0-1.05,1A.74.74,0,0,0,133.32,137.46Z" style="fill: rgb(255, 255, 255); transform-origin: 132.836px 137.003px;" id="elgmxx5de418p" class="animable"></path><path d="M238.25,374.05a.73.73,0,0,0,0-1,.74.74,0,1,0-1,1A.73.73,0,0,0,238.25,374.05Z" style="fill: rgb(255, 255, 255); transform-origin: 237.652px 373.452px;" id="elk7cjus2rex" class="animable"></path><path d="M280.1,288.85a.73.73,0,0,0,0-1,.74.74,0,0,0-1.06,1A.73.73,0,0,0,280.1,288.85Z" style="fill: rgb(255, 255, 255); transform-origin: 279.608px 288.391px;" id="el3t0luwxvrrv" class="animable"></path><path d="M158.62,323.84a.73.73,0,0,0,0-1,.73.73,0,1,0,0,1Z" style="fill: rgb(255, 255, 255); transform-origin: 158.088px 323.34px;" id="el73y3966pkvv" class="animable"></path><path d="M243.7,183.09a1.26,1.26,0,1,0-1.76-1.8,1.24,1.24,0,0,0,0,1.77A1.26,1.26,0,0,0,243.7,183.09Z" style="fill: rgb(255, 255, 255); transform-origin: 242.845px 182.162px;" id="elu1u5jsi54xl" class="animable"></path><path d="M326.28,375.92a1.26,1.26,0,1,0-1.78,0A1.26,1.26,0,0,0,326.28,375.92Z" style="fill: rgb(255, 255, 255); transform-origin: 325.39px 375.028px;" id="elhiflfz5md8" class="animable"></path><path d="M173.8,271.45a1.26,1.26,0,1,0-1.78,0A1.25,1.25,0,0,0,173.8,271.45Z" style="fill: rgb(255, 255, 255); transform-origin: 172.91px 270.56px;" id="elwojafd7e4se" class="animable"></path><path d="M394.4,241.31a1.26,1.26,0,1,0-1.78,0A1.25,1.25,0,0,0,394.4,241.31Z" style="fill: rgb(255, 255, 255); transform-origin: 393.51px 240.42px;" id="elutoxbxa2f7" class="animable"></path><path d="M104.84,226.12a1.26,1.26,0,1,0-1.78,0A1.26,1.26,0,0,0,104.84,226.12Z" style="fill: rgb(255, 255, 255); transform-origin: 103.95px 225.228px;" id="el2tbpjgta9h" class="animable"></path></g></g></g><g id="freepik--planet-2--inject-200" class="animable" style="transform-origin: 403.686px 114.881px;"><path d="M352.27,142.64c5.16,9.55,32.36,4.87,60.76-10.46s47.24-35.51,42.09-45.06-32.36-4.86-60.76,10.47S347.12,133.09,352.27,142.64Zm5.9-4.5c-4.21-7.79,12.52-25,37.36-38.38s48.39-18,52.59-10.18-12.52,25-37.36,38.39S362.37,145.93,358.17,138.14Z" style="fill: #1E368C; transform-origin: 403.695px 114.881px;" id="elasrfkfl6909" class="animable"></path><g id="els7poer2790q"><path d="M352.27,142.64c5.16,9.55,32.36,4.87,60.76-10.46s47.24-35.51,42.09-45.06-32.36-4.86-60.76,10.47S347.12,133.09,352.27,142.64Zm5.9-4.5c-4.21-7.79,12.52-25,37.36-38.38s48.39-18,52.59-10.18-12.52,25-37.36,38.39S362.37,145.93,358.17,138.14Z" style="fill: rgb(255, 255, 255); opacity: 0.6; transform-origin: 403.695px 114.881px;" class="animable" id="eldmpqc1jby1c"></path></g><path d="M360.9,134.88c4,7.41,25.82,3.39,48.74-9s38.25-28.4,34.25-35.81-25.81-3.38-48.73,9S356.91,127.48,360.9,134.88Zm4.78-3.6c-3.26-6,10.34-19.71,30.39-30.53S435,86.06,438.26,92.1s-10.34,19.71-30.38,30.53S368.94,137.32,365.68,131.28Z" style="fill: #1E368C; transform-origin: 402.396px 112.476px;" id="el937bu43p7wq" class="animable"></path><g id="elwdu7fcdzr8q"><path d="M360.9,134.88c4,7.41,25.82,3.39,48.74-9s38.25-28.4,34.25-35.81-25.81-3.38-48.73,9S356.91,127.48,360.9,134.88Zm4.78-3.6c-3.26-6,10.34-19.71,30.39-30.53S435,86.06,438.26,92.1s-10.34,19.71-30.38,30.53S368.94,137.32,365.68,131.28Z" style="fill: rgb(255, 255, 255); opacity: 0.5; transform-origin: 402.396px 112.476px;" class="animable" id="elxx4x3msofe9"></path></g><path d="M369.07,128.67c3.14,5.81,20.27,2.65,38.26-7.06s30-22.3,26.89-28.11-20.27-2.66-38.26,7S365.93,122.85,369.07,128.67Zm3.75-2.83c-2.57-4.74,8.12-15.47,23.85-24s30.57-11.53,33.13-6.79-8.12,15.47-23.86,24S375.38,130.58,372.82,125.84Z" style="fill: #1E368C; transform-origin: 401.641px 111.083px;" id="elwvwwmf05igm" class="animable"></path><g id="el4f42zs1nsrd"><path d="M369.07,128.67c3.14,5.81,20.27,2.65,38.26-7.06s30-22.3,26.89-28.11-20.27-2.66-38.26,7S365.93,122.85,369.07,128.67Zm3.75-2.83c-2.57-4.74,8.12-15.47,23.85-24s30.57-11.53,33.13-6.79-8.12,15.47-23.86,24S375.38,130.58,372.82,125.84Z" style="fill: rgb(255, 255, 255); opacity: 0.7; transform-origin: 401.641px 111.083px;" class="animable" id="el1bs8rmei0ia"></path></g><path d="M427.45,129.51a27.9,27.9,0,1,0-38.38,9.13A27.89,27.89,0,0,0,427.45,129.51Z" style="fill: #1E368C; isolation: isolate; transform-origin: 403.694px 114.881px;" id="el4rf5jer3y6c" class="animable"></path><g id="el5vkh9vuzrpq"><path d="M400.57,87.16h0a27.9,27.9,0,0,0-20.6,13.12c-.36.56-.67,1.17-1,1.74a27.71,27.71,0,0,0-2.53,18.78c.17.7.34,1.41.54,2.09a27.53,27.53,0,0,0,2.56,5.93,20,20,0,0,0,1.86,2.83,27,27,0,0,0,7.23,6.72,2.39,2.39,0,0,0,.44.29c.71.42,1.39.82,2.12,1.18a26.9,26.9,0,0,0,7.78,2.55,23.67,23.67,0,0,0,3,.35,27.87,27.87,0,0,0,25.46-13.2,27.26,27.26,0,0,0,3.42-8.41v0a3.5,3.5,0,0,0,.15-.73,25.44,25.44,0,0,0,.35-8.65.56.56,0,0,0,0-.31,27.11,27.11,0,0,0-2.61-8.75,13,13,0,0,0-1-1.84,12.89,12.89,0,0,0-1-1.69,19.88,19.88,0,0,0-1.94-2.47,27,27,0,0,0-6.44-5.54A27.69,27.69,0,0,0,400.57,87.16Z" style="fill: rgb(255, 255, 255); opacity: 0.2; transform-origin: 403.684px 114.886px;" class="animable" id="elpngwitghvbq"></path></g><g id="el6ynbf9b3wyy"><g style="opacity: 0.2; transform-origin: 403.669px 114.887px;" class="animable" id="elm10dsl5cbas"><path d="M402.39,142.74a27.82,27.82,0,0,0,25.06-13.21,26.67,26.67,0,0,0,3.2-7.49C424.84,128.79,415.77,138.38,402.39,142.74Z" style="fill: rgb(255, 255, 255); transform-origin: 416.52px 132.407px;" id="elox71l71ecq9" class="animable"></path><path d="M399,112c-5.4,3.39-14.78,11.41-21.11,13.42a8.65,8.65,0,0,0,.51,1.2c2.78-1.12,6.77-1.82,10.6-2.55,8-1.51,13.8-.86,20.05-8.59S405,108.29,399,112Z" style="fill: rgb(255, 255, 255); transform-origin: 394.442px 117.999px;" id="elm2gwpygz0ul" class="animable"></path><path d="M431.61,114.62c-6.15,6.34-21.79,20.93-39.58,25.63a30.06,30.06,0,0,0,2.85,1.12c9.24-4.52,26.73-12.8,36.52-23.37A23.69,23.69,0,0,0,431.61,114.62Z" style="fill: rgb(255, 255, 255); transform-origin: 411.82px 127.995px;" id="elo59kja30v8m" class="animable"></path><path d="M429.72,104.87a130.6,130.6,0,0,1-12.81,11.33c-9.44,7-25.17,14.71-34.44,16.76a24.61,24.61,0,0,0,3.49,3.43c10.21-3.58,33.77-13,45-27.2A26.48,26.48,0,0,0,429.72,104.87Z" style="fill: rgb(255, 255, 255); transform-origin: 406.715px 120.63px;" id="eliwaqripalh" class="animable"></path><path d="M406.87,87.19a15.21,15.21,0,0,0-2.43-.19c-7.06,5.24-19.9,15.88-27.35,19.55a22.88,22.88,0,0,0-.84,3.43C383.48,103.88,400.35,92.65,406.87,87.19Z" style="fill: rgb(255, 255, 255); transform-origin: 391.56px 98.49px;" id="elj5r8jbig5f" class="animable"></path><path d="M411.75,88.16c-5.79,4-12.62,10.38-15,13.42-2.74,3.59-14.9,11.16-21,12.51a10,10,0,0,0,0,1.34c10.84-6.32,29-10.37,35.65-13.48a71.06,71.06,0,0,0,11.85-6.86,27.26,27.26,0,0,0-5-4A27.82,27.82,0,0,0,411.75,88.16Z" style="fill: rgb(255, 255, 255); transform-origin: 399.489px 101.795px;" id="ellxr044d81p" class="animable"></path></g></g><g id="elpmz39jtdxxk"><path d="M424.78,96.65c-1.34,1.13-3,2.43-5,3.77C413.14,105,396,109.31,384.55,116c-4.28,2.51-6.72,4-8.11,4.81.17.7.34,1.41.54,2.09a90.14,90.14,0,0,0,10.85-5.43c7.26-4.24,15.77-8.23,21.82-9.66,4.61-1.1,13.33-6.1,17.07-8.67A19.88,19.88,0,0,0,424.78,96.65Z" style="opacity: 0.2; transform-origin: 401.58px 109.775px;" class="animable" id="eluassunp11"></path></g><g id="eliv8wt5zbyd"><path d="M427.75,100.81a185.62,185.62,0,0,0-16,14.71c-8.38,8.85-15.41,9.28-22.48,10.19a33,33,0,0,0-9.77,3.1,20,20,0,0,0,1.86,2.83A85.11,85.11,0,0,0,401.7,124c11.15-5.94,22.78-17.1,27.05-21.36A13,13,0,0,0,427.75,100.81Z" style="opacity: 0.2; transform-origin: 404.125px 116.225px;" class="animable" id="el2b9fz84tf35"></path></g><g id="ely3q25fyhgq"><path d="M431.36,111.4A97.49,97.49,0,0,1,406,130.13c-7.72,3.92-13.47,6.54-17.36,8.23a2.39,2.39,0,0,0,.44.29c.71.42,1.39.82,2.12,1.18,9-4.23,28.8-14.58,40.19-28.12A.56.56,0,0,0,431.36,111.4Z" style="opacity: 0.2; transform-origin: 410.02px 125.615px;" class="animable" id="elr13tmeuqwpi"></path></g><g id="eljgx0qzodckc"><path d="M400.54,87.15a27.9,27.9,0,0,0-20.6,13.12c-.36.56-.67,1.17-1,1.74C384.74,98.92,395,92.8,400.54,87.15Z" style="opacity: 0.2; transform-origin: 389.74px 94.58px;" class="animable" id="elyltc2mhxfkf"></path></g><g id="elr0cx2hefez"><path d="M431,120.36c-5.51,4.58-19.85,16.2-27.74,19.79a34.74,34.74,0,0,0-4.32,2.23,23.67,23.67,0,0,0,3,.35c5.17-2.92,14.94-8.72,19.28-12.88,3.79-3.67,7.41-6.86,9.6-8.73v0A3.5,3.5,0,0,0,431,120.36Z" style="opacity: 0.2; transform-origin: 414.97px 131.545px;" class="animable" id="eli6i2nb68g8h"></path></g><g id="el9y71e76hbsk"><path d="M378.61,110.54s11.2-4.38,14.59-7.6a57,57,0,0,0,5.69-6.28S384,104,378.61,110.54Z" style="opacity: 0.2; transform-origin: 388.75px 103.6px;" class="animable" id="elap1f2hwl247"></path></g><path d="M357.82,133.27a6.6,6.6,0,0,0,.35,4.87c4.2,7.79,27.75,3.24,52.59-10.17s41.57-30.6,37.36-38.39a6.63,6.63,0,0,0-3.88-3l6.08-3.28a8.53,8.53,0,0,1,4.8,3.78c5.15,9.55-13.69,29.72-42.09,45.06s-55.6,20-60.76,10.46a8.47,8.47,0,0,1-.53-6.09Z" style="fill: #1E368C; transform-origin: 403.686px 115.425px;" id="elvfwot85zfnm" class="animable"></path><g id="elifekc5xo05"><path d="M357.82,133.27a6.6,6.6,0,0,0,.35,4.87c4.2,7.79,27.75,3.24,52.59-10.17s41.57-30.6,37.36-38.39a6.63,6.63,0,0,0-3.88-3l6.08-3.28a8.53,8.53,0,0,1,4.8,3.78c5.15,9.55-13.69,29.72-42.09,45.06s-55.6,20-60.76,10.46a8.47,8.47,0,0,1-.53-6.09Z" style="fill: rgb(255, 255, 255); opacity: 0.6; transform-origin: 403.686px 115.425px;" class="animable" id="eld5kkjnhmyga"></path></g><path d="M365.2,129.29a4.24,4.24,0,0,0,.48,2c3.26,6,22.15,2.17,42.2-8.65s33.65-24.49,30.38-30.53a4.17,4.17,0,0,0-1.4-1.5L441.77,88a5.55,5.55,0,0,1,2.12,2.13c4,7.41-11.33,23.44-34.25,35.81s-44.74,16.4-48.74,9a5.6,5.6,0,0,1-.61-2.94Z" style="fill: #1E368C; transform-origin: 402.401px 113.323px;" id="elsl5bgb6ldbf" class="animable"></path><g id="elbvc2vc6i4fl"><path d="M365.2,129.29a4.24,4.24,0,0,0,.48,2c3.26,6,22.15,2.17,42.2-8.65s33.65-24.49,30.38-30.53a4.17,4.17,0,0,0-1.4-1.5L441.77,88a5.55,5.55,0,0,1,2.12,2.13c4,7.41-11.33,23.44-34.25,35.81s-44.74,16.4-48.74,9a5.6,5.6,0,0,1-.61-2.94Z" style="fill: rgb(255, 255, 255); opacity: 0.5; transform-origin: 402.401px 113.323px;" class="animable" id="elkkehkj0hcla"></path></g><path d="M372.62,125.28a2.66,2.66,0,0,0,.2.56c2.56,4.74,17.39,1.7,33.12-6.79s26.42-19.23,23.86-24a3.25,3.25,0,0,0-.36-.47l4-2.15a4.25,4.25,0,0,1,.8,1c3.14,5.81-8.9,18.4-26.89,28.11s-35.12,12.87-38.26,7.06a3.87,3.87,0,0,1-.42-1.24Z" style="fill: #1E368C; transform-origin: 401.704px 111.97px;" id="ellxsdghv1tsl" class="animable"></path><g id="el9939snjl078"><path d="M372.62,125.28a2.66,2.66,0,0,0,.2.56c2.56,4.74,17.39,1.7,33.12-6.79s26.42-19.23,23.86-24a3.25,3.25,0,0,0-.36-.47l4-2.15a4.25,4.25,0,0,1,.8,1c3.14,5.81-8.9,18.4-26.89,28.11s-35.12,12.87-38.26,7.06a3.87,3.87,0,0,1-.42-1.24Z" style="fill: rgb(255, 255, 255); opacity: 0.7; transform-origin: 401.704px 111.97px;" class="animable" id="elax86ajt8n1m"></path></g></g><g id="freepik--planet-1--inject-200" class="animable" style="transform-origin: 162.64px 75.3967px;"><path d="M134.83,75.4a27.82,27.82,0,1,0,27.82-27.83A27.82,27.82,0,0,0,134.83,75.4Z" style="fill: #1E368C; isolation: isolate; transform-origin: 162.65px 75.39px;" id="eln306zz9zdaj" class="animable"></path><g id="elohe5ezy2bj"><path d="M134.83,75.4a27.82,27.82,0,1,0,27.82-27.83A27.82,27.82,0,0,0,134.83,75.4Z" style="fill: rgb(255, 255, 255); opacity: 0.2; transform-origin: 162.65px 75.39px;" class="animable" id="elfq8h7xcwzru"></path></g><g id="elvkb6k6g3jf"><circle cx="176.32" cy="84.91" r="5.65" style="opacity: 0.1; transform-origin: 176.32px 84.91px;" class="animable" id="elfuw9yklf8nc"></circle></g><g id="el0ipdloolru7l"><path d="M149.44,73.77a1,1,0,1,0,1-1A1,1,0,0,0,149.44,73.77Z" style="opacity: 0.1; transform-origin: 150.44px 73.77px;" class="animable" id="elt8eoapfljqe"></path></g><g id="eluq1a62qt68"><path d="M164.83,96.18a1,1,0,1,0,1-1A1,1,0,0,0,164.83,96.18Z" style="opacity: 0.1; transform-origin: 165.83px 96.18px;" class="animable" id="elrpw9y67mme"></path></g><g id="elwtx2hcpv8q"><path d="M154.91,52.25a1,1,0,1,0,2.07,0,1,1,0,0,0-2.07,0Z" style="opacity: 0.1; transform-origin: 155.945px 52.25px;" class="animable" id="el899udch818p"></path></g><g id="el0zf77wwm36np"><path d="M137.11,76.43a1,1,0,1,0,1-1A1,1,0,0,0,137.11,76.43Z" style="opacity: 0.1; transform-origin: 138.11px 76.43px;" class="animable" id="elq7nzmzfqw0n"></path></g><g id="elii1x9upfd8"><path d="M179.9,67.71a1,1,0,1,0,1-1A1,1,0,0,0,179.9,67.71Z" style="opacity: 0.1; transform-origin: 180.9px 67.71px;" class="animable" id="elvxaun7bhehf"></path></g><g id="elobn4dt8i5o"><path d="M165.86,59.94a3.58,3.58,0,1,0,3.58-3.58A3.58,3.58,0,0,0,165.86,59.94Z" style="opacity: 0.1; transform-origin: 169.44px 59.94px;" class="animable" id="elgb0e30hhtsu"></path></g><g id="el6eney7woh75"><path d="M145.86,92.61A3.58,3.58,0,1,0,149.44,89,3.57,3.57,0,0,0,145.86,92.61Z" style="opacity: 0.1; transform-origin: 149.44px 92.58px;" class="animable" id="elq9lu942afrk"></path></g><g id="elct2n4ulyfrl"><path d="M134.81,75.4A27.82,27.82,0,0,0,185.9,90.65a25.67,25.67,0,0,1-6,.67,27.79,27.79,0,0,1-23.25-43.09A27.78,27.78,0,0,0,134.81,75.4Z" style="opacity: 0.1; transform-origin: 160.355px 75.7267px;" class="animable" id="eld523zyu5nbv"></path></g></g><g id="freepik--Earth--inject-200" class="animable" style="transform-origin: 83.8286px 344.281px;"><path d="M75.37,308.61a45.27,45.27,0,1,0,52.93,36A45.28,45.28,0,0,0,75.37,308.61Z" style="fill: #1E368C; transform-origin: 83.8299px 353.083px;" id="el4ys9eh8lf3g" class="animable"></path><g id="el5duomsabvte"><path d="M39.36,361.55a45.27,45.27,0,1,0,36-52.94,45.24,45.24,0,0,0-23.14,12.07A45.16,45.16,0,0,0,39.36,361.55Z" style="fill: rgb(255, 255, 255); opacity: 0.2; transform-origin: 83.8265px 353.08px;" class="animable" id="eljzmszolusjf"></path></g><g id="elj20toitc9q"><path d="M44.73,330.29c6.17.92,9.67.63,7.53,2.86a32.81,32.81,0,0,0-4.46,6.66s-.22,2,2.49,2.88,2.76.45,3.73,1.11,7.17,5.12,3.57,6.22-3.55,2.79-5.66,2.07-4.41,1.25-4.9,1.64a15.5,15.5,0,0,1-3.35.78l-5.12-1.18a44.44,44.44,0,0,0,.8,8.22,42.52,42.52,0,0,0,1.12,4.58,9.74,9.74,0,0,1,4.37,1.25c2.09,1.43,1.64,2.77,2.38,3.9s.92.63.92.63.16,1.85,1.58,2,4.73,3.28,5.38,3.73,4.43,1.13,5.11,2.95,1.14,1.78.53,3c-.47.95-1.73,2.68-5.51,4.54a44.62,44.62,0,0,0,12.28,7.13c-.94-2,3.89-7.51,4.37-11s.89-4.12,2.14-4.94,1.46,1,2.27,1.55a3.56,3.56,0,0,0,4.3-1.1,23.6,23.6,0,0,1,3.32-3.17s3.33-1.75,4-1.31,2.48,1.92,3.35,2,1.19-.37,2.09-1,3.65-4.33,2.73-4.71-2-2.31-2-2.31a23.38,23.38,0,0,0-2.52-2.57c-.51-.28.38-1.95.38-1.95s4.29.31,4.73-.34-.59-1.56.58-3.62,2.77-.95,4.31.6-.53.79-1.58,2.32-.78,1.49,2.11,1.43,1.39,1.08,1.94,1.32a20.81,20.81,0,0,1,2.57,2.47s-2.85,3.85-5.45,8,6,4.34,8.8,4.1c1.34-.11,3.59,1.92,5.1,4.67a45.14,45.14,0,0,0,14-33.21.46.46,0,0,1-.48-.22c-.5-.79-3.15-1.65-3.31-2.45s-2.91-1.28-3.63-2.47a4.71,4.71,0,0,1,.42-4.8c1.07-1.74,1.7-4.42,2.35-7.12.21-.86.37-1.21.61-1.19a45.33,45.33,0,0,0-27.53-24.46c-.21,3.29-1,6.69-3.23,6.86-4.38.34-4.13,3.35-3.38,6.46s-1.68,3.83-2.75,4.05-3.28,1.07-2.79,2.59,2.18,4.08-.14,3.93-3,2.93-4.31-1,1-5.26-1.13-6.68-4.08.77-7.37-.29-3.35-1.33-3.94-2.21.84-3,.28-6a3,3,0,0,0-4.4-2.28c-.85.61-3.93,4-3.43,5s-2.21,2.95-4.17,2.34-1.8-4.26-3.52-3a5,5,0,0,0-.38.34.61.61,0,0,1-.17.15A44.68,44.68,0,0,0,44.73,330.29Zm26.14,44.38c-3-1.11,0,0-.62-4.91s2.19.07,2.19.07a47,47,0,0,0,4.27-3.72c1.65-1.72,2.74,1.86,4.08,2.77s1.39,3.78-2,5.29c0,0-1,1.71-2,.53S73.9,375.79,70.87,374.67Zm-4.15,3.57c1.09,0,2.2,2.44.46,4.33l-2.87-1a15.42,15.42,0,0,1-.92-3.67C63.33,376.48,65.63,378.2,66.72,378.24ZM66.46,336c1.1-1.62,2.4-2.49,3.9-1.91,2.42.94,1.58,3.26,3.32,4.69s-2.42,5.81-2.42,5.81-1,2.95-3.81-.12-5-3.65-4.49-5.07S65.36,337.56,66.46,336Z" style="fill: rgb(255, 255, 255); opacity: 0.5; transform-origin: 83.8116px 352.52px;" class="animable" id="elry7ufmp43s"></path></g><g id="elcyy4ckn65as"><path d="M64,312.41C65.16,326,71.5,340,82.7,351.16c12.41,12.4,28.2,18.84,43.08,18.95a45.27,45.27,0,0,0-50.41-61.5A44.52,44.52,0,0,0,64,312.41Z" style="fill: rgb(255, 255, 255); opacity: 0.2; transform-origin: 96.5524px 338.961px;" class="animable" id="el8zsrss7s218"></path></g><path d="M101.23,298.72a8.52,8.52,0,1,0,8.51-8.51A8.52,8.52,0,0,0,101.23,298.72Z" style="fill: #1E368C; isolation: isolate; transform-origin: 109.75px 298.73px;" id="el19p45u705ys" class="animable"></path><g id="elcdyma9gz849"><path d="M101.23,298.72a8.52,8.52,0,1,0,8.51-8.51A8.52,8.52,0,0,0,101.23,298.72Z" style="fill: rgb(255, 255, 255); opacity: 0.2; transform-origin: 109.75px 298.73px;" class="animable" id="elgxcnenwy8ad"></path></g><g id="elcwv2b7yn2kf"><circle cx="113.93" cy="301.63" r="1.73" style="opacity: 0.1; transform-origin: 113.93px 301.63px;" class="animable" id="elznd3h398ri"></circle></g><g id="el5yfi9sl13g"><path d="M105.7,298.23a.31.31,0,0,0,.32.31.32.32,0,1,0,0-.63A.32.32,0,0,0,105.7,298.23Z" style="opacity: 0.1; transform-origin: 106.048px 298.225px;" class="animable" id="el2d58dj2hpke"></path></g><g id="elhznh3p383os"><path d="M110.41,305.08a.32.32,0,0,0,.32.32.32.32,0,1,0,0-.63A.31.31,0,0,0,110.41,305.08Z" style="opacity: 0.1; transform-origin: 110.758px 305.085px;" class="animable" id="ela678ey59ghj"></path></g><g id="eldenapgzj6xl"><path d="M107.38,291.64a.32.32,0,1,0,.63,0,.32.32,0,1,0-.63,0Z" style="opacity: 0.1; transform-origin: 107.695px 291.64px;" class="animable" id="elc02b660oi5r"></path></g><g id="el4a2kgjkr6g4"><path d="M101.93,299a.32.32,0,1,0,.63,0,.32.32,0,1,0-.63,0Z" style="opacity: 0.1; transform-origin: 102.245px 299px;" class="animable" id="el07h95krrl4u2"></path></g><g id="el0rqjsq8hdg09"><path d="M115,296.37a.32.32,0,0,0,.32.32.32.32,0,0,0,.32-.32.33.33,0,0,0-.32-.32A.32.32,0,0,0,115,296.37Z" style="opacity: 0.1; transform-origin: 115.32px 296.37px;" class="animable" id="elk79wumawjbl"></path></g><g id="elcvy97zc0y17"><path d="M110.73,294a1.1,1.1,0,1,0,1.09-1.09A1.09,1.09,0,0,0,110.73,294Z" style="opacity: 0.1; transform-origin: 111.83px 294.01px;" class="animable" id="elvphzne59bws"></path></g><g id="eltzt4ao1q8kf"><path d="M104.61,304a1.1,1.1,0,1,0,1.09-1.09A1.09,1.09,0,0,0,104.61,304Z" style="opacity: 0.1; transform-origin: 105.71px 304.01px;" class="animable" id="elfnjjjpxc8nr"></path></g><g id="el2xuonbg0sm7"><path d="M101.23,298.72a8.51,8.51,0,0,0,15.63,4.67,7.92,7.92,0,0,1-1.84.2,8.51,8.51,0,0,1-7.11-13.18A8.49,8.49,0,0,0,101.23,298.72Z" style="opacity: 0.1; transform-origin: 109.045px 298.824px;" class="animable" id="elrahz7g0jbgr"></path></g></g><g id="freepik--astronaut-helmet--inject-200" class="animable" style="transform-origin: 250.886px 223.379px;"><g id="el8qmo3p8h9ka"><rect x="291.8" y="84.07" width="2" height="40.09" style="fill: rgb(38, 50, 56); transform-origin: 292.8px 104.115px; transform: rotate(-8.82deg);" class="animable" id="elqt82plwnm9"></rect></g><g id="elesmzmjdwyv"><rect x="300.12" y="100.08" width="2" height="40.09" style="fill: rgb(38, 50, 56); transform-origin: 301.12px 120.125px; transform: rotate(-8.82deg);" class="animable" id="ely3pvavpk7tr"></rect></g><g id="elsptkabzjol"><g style="isolation: isolate; opacity: 0.6; transform-origin: 292.8px 104.115px;" class="animable" id="el276esfbznsy"><g id="elqhvibr0iqjc"><rect x="291.8" y="84.07" width="2" height="40.09" style="fill: rgb(255, 255, 255); transform-origin: 292.8px 104.115px; transform: rotate(-8.82deg);" class="animable" id="elny8emavv7l"></rect></g></g></g><g id="elmnm4rqycas8"><g style="isolation: isolate; opacity: 0.6; transform-origin: 301.12px 120.125px;" class="animable" id="elwzshousn7"><g id="elix7va0tn3t"><rect x="300.12" y="100.08" width="2" height="40.09" style="fill: rgb(255, 255, 255); transform-origin: 301.12px 120.125px; transform: rotate(-8.82deg);" class="animable" id="el86qab7k6dg8"></rect></g></g></g><path d="M304.35,118.55l-1.07-1.68-10.19,1.58a8.54,8.54,0,0,0-.93,6Z" style="fill: rgb(38, 50, 56); transform-origin: 298.161px 120.66px;" id="elq9xct6j179i" class="animable"></path><path d="M290.29,88h0a1.92,1.92,0,0,0,1.6-2.18l-.67-4.3a1.92,1.92,0,0,0-2.18-1.6h0a1.92,1.92,0,0,0-1.6,2.18l.67,4.3A1.92,1.92,0,0,0,290.29,88Z" style="fill: rgb(38, 50, 56); transform-origin: 289.665px 83.96px;" id="elatzuctqlnxc" class="animable"></path><path d="M298.61,104h0a1.92,1.92,0,0,0,1.6-2.18l-.67-4.3a1.92,1.92,0,0,0-2.18-1.6h0a1.92,1.92,0,0,0-1.6,2.18l.67,4.3A1.92,1.92,0,0,0,298.61,104Z" style="fill: rgb(38, 50, 56); transform-origin: 297.985px 99.96px;" id="elyx161vohrls" class="animable"></path><g id="el8fqgw1dqfwr"><g style="isolation: isolate; opacity: 0.4; transform-origin: 289.665px 83.96px;" class="animable" id="elbwmv1ukfr9p"><path d="M290.29,88h0a1.92,1.92,0,0,0,1.6-2.18l-.67-4.3a1.92,1.92,0,0,0-2.18-1.6h0a1.92,1.92,0,0,0-1.6,2.18l.67,4.3A1.92,1.92,0,0,0,290.29,88Z" style="fill: rgb(255, 255, 255); transform-origin: 289.665px 83.96px;" id="elo3ugfqh6aco" class="animable"></path></g></g><g id="elgqa1y5jqqpk"><g style="isolation: isolate; opacity: 0.4; transform-origin: 297.985px 99.96px;" class="animable" id="elwwev71tegep"><path d="M298.61,104h0a1.92,1.92,0,0,0,1.6-2.18l-.67-4.3a1.92,1.92,0,0,0-2.18-1.6h0a1.92,1.92,0,0,0-1.6,2.18l.67,4.3A1.92,1.92,0,0,0,298.61,104Z" style="fill: rgb(255, 255, 255); transform-origin: 297.985px 99.96px;" id="el9udwqkouqcs" class="animable"></path></g></g><g id="el8wvo1u80vfv"><path d="M304.35,118.55l-1.07-1.68-10.19,1.58a8.54,8.54,0,0,0-.93,6Z" style="fill: rgb(255, 255, 255); opacity: 0.4; transform-origin: 298.161px 120.66px;" class="animable" id="elq9iqp7j0l49"></path></g><path d="M316.23,115.51s-42.13,8.6-40,22.28,44.93,9.43,44.93,9.43Z" style="fill: #1E368C; transform-origin: 298.656px 131.677px;" id="el7ynzh9jyly4" class="animable"></path><g id="elscu7jtvzq8"><path d="M316.23,115.51s-42.13,8.6-40,22.28,44.93,9.43,44.93,9.43Z" style="fill: rgb(255, 255, 255); opacity: 0.6; transform-origin: 298.656px 131.677px;" class="animable" id="eli8phhr3g02j"></path></g><path d="M314.25,114.76l3.64-.57c6.49-1,12.91,5.67,14.34,14.91s-2.66,17.54-9.15,18.55l-3.64.56c-6.49,1-12.91-5.67-14.34-14.9S307.76,115.76,314.25,114.76Z" style="fill: rgb(38, 50, 56); transform-origin: 318.665px 131.2px;" id="el8bptv34o2q4" class="animable"></path><g id="elpqm7pt1a5m8"><ellipse cx="320.49" cy="130.92" rx="11.89" ry="16.93" style="fill: rgb(255, 255, 255); opacity: 0.2; transform-origin: 320.49px 130.92px; transform: rotate(-8.82deg);" class="animable" id="el49pci3f8hdn"></ellipse></g><g id="el668f6d3tvd"><ellipse cx="321.76" cy="130.72" rx="10.59" ry="15.09" style="fill: #1E368C; transform-origin: 321.76px 130.72px; transform: rotate(-8.82deg);" class="animable" id="elmau0xcolm2"></ellipse></g><g id="elw210dhurh2"><ellipse cx="321.76" cy="130.72" rx="10.59" ry="15.09" style="fill: rgb(255, 255, 255); opacity: 0.6; transform-origin: 321.76px 130.72px; transform: rotate(-8.82deg);" class="animable" id="elxm7thv1qoy"></ellipse></g><g id="elszhoazfqkq"><path d="M313.9,126.62c.46,3,2.42,5.12,4.36,4.82s3.16-2.95,2.7-5.92-2.41-5.11-4.36-4.81S313.44,123.66,313.9,126.62Z" style="fill: rgb(255, 255, 255); opacity: 0.6; transform-origin: 317.43px 126.075px;" class="animable" id="el4s3408bpg49"></path></g><g id="elq0c2zgezxs"><path d="M319.37,138.58c.46,3,2.41,5.12,4.36,4.82s3.15-3,2.69-5.91-2.41-5.12-4.35-4.82S318.91,135.62,319.37,138.58Z" style="fill: rgb(255, 255, 255); opacity: 0.6; transform-origin: 322.896px 138.035px;" class="animable" id="elb47wwwvuadv"></path></g><g id="elsaimcfpx7s8"><path d="M322.8,128c.46,3,2.41,5.12,4.36,4.81s3.15-2.94,2.69-5.91-2.41-5.12-4.36-4.81S322.34,125,322.8,128Z" style="fill: rgb(255, 255, 255); opacity: 0.6; transform-origin: 326.325px 127.45px;" class="animable" id="el4jqa6upimse"></path></g><path d="M143.35,263.28a113.08,113.08,0,0,0,27.34,58.05,52.59,52.59,0,0,1,12.55,27l1.39,8.94L357,330.49l-1.67-10.74a47.79,47.79,0,0,1,1.5-21,50.46,50.46,0,0,1,2.37-6.3,113.61,113.61,0,0,0-120.37-159,113.56,113.56,0,0,0-95.51,129.78Z" style="fill: #1E368C; transform-origin: 255.592px 244.738px;" id="el39ele5opk7d" class="animable"></path><g id="el3un7mvjhwp4"><path d="M143.35,263.28a113.08,113.08,0,0,0,27.34,58.05,52.59,52.59,0,0,1,12.55,27l1.39,8.94L357,330.49l-1.67-10.74c-.15-1-.27-1.95-.35-2.93a48,48,0,0,1,1.85-18,50.46,50.46,0,0,1,2.37-6.3,113.61,113.61,0,0,0-120.37-159,113.54,113.54,0,0,0-87.6,67.43A113.13,113.13,0,0,0,143.35,263.28Z" style="fill: rgb(255, 255, 255); opacity: 0.6; transform-origin: 255.598px 244.773px;" class="animable" id="eltolsyi1p4cp"></path></g><g id="elv53wip5x1k"><path d="M143.35,263.28a113.08,113.08,0,0,0,27.34,58.05,52.59,52.59,0,0,1,12.55,27l1.39,8.94L357,330.49l-1.67-10.74c-.15-1-.27-1.95-.35-2.93-12.77,4.47-28.48,8.17-47.75,10.74-137.73,18.33-157.36-46-160.33-79.9-1.52-17.39,1.26-34.34,4.33-46.73A113.13,113.13,0,0,0,143.35,263.28Z" style="isolation: isolate; opacity: 0.2; transform-origin: 249.49px 279.1px;" class="animable" id="elnd0bp3heds"></path></g><path d="M188,332.5c-3.09-1.07-5.72-4.61-6.42-9.13s.73-8.69,3.35-10.64a16.11,16.11,0,0,1,5.73-3h0l.43-.08c4.73-.74,9.4,4,10.43,10.65s-2,12.57-6.72,13.31l-.43.05h0A15.94,15.94,0,0,1,188,332.5Z" style="fill: rgb(38, 50, 56); transform-origin: 191.562px 321.619px;" id="elnfdkv3hwwn" class="animable"></path><g id="el9quchhzeg5n"><path d="M181.54,323.37c.91,5.84,5,10.05,9.21,9.4s6.84-5.91,5.93-11.75-5-10-9.21-9.4S180.64,317.53,181.54,323.37Z" style="fill: rgb(255, 255, 255); opacity: 0.2; transform-origin: 189.111px 322.199px;" class="animable" id="elv1b6g5wr7xj"></path></g><g id="ellovvc5bdebh"><path d="M187.94,327.45c.2,1.3,1.11,2.23,2,2.09s1.51-1.31,1.31-2.61-1.11-2.23-2-2.08S187.73,326.16,187.94,327.45Z" style="fill: rgb(255, 255, 255); opacity: 0.2; transform-origin: 189.594px 327.194px;" class="animable" id="ellc9h6e7ipbp"></path></g><g id="elewvvq0mjeel"><path d="M184.66,317.41c.2,1.29,1.11,2.23,2,2.08s1.52-1.31,1.32-2.6-1.12-2.23-2.05-2.09S184.46,316.11,184.66,317.41Z" style="fill: rgb(255, 255, 255); opacity: 0.2; transform-origin: 186.318px 317.146px;" class="animable" id="eldpoj27via"></path></g><g id="elccpkdk5noqs"><rect x="177" y="336.01" width="187.78" height="16.55" style="fill: #1E368C; transform-origin: 270.89px 344.285px; transform: rotate(171.18deg);" class="animable" id="elhbimq20adgi"></rect></g><g id="elqaz1q1n0mz"><rect x="177" y="336.01" width="187.78" height="16.55" style="isolation: isolate; opacity: 0.3; transform-origin: 270.89px 344.285px; transform: rotate(171.18deg);" class="animable" id="elj6c9067en79"></rect></g><g id="elwyd359od1pd"><rect x="177.76" y="345.76" width="60.58" height="16.55" style="isolation: isolate; opacity: 0.2; transform-origin: 208.05px 354.035px; transform: rotate(171.18deg);" class="animable" id="elh1ujzkmc8ql"></rect></g><g id="el1k11dau5j96"><rect x="173.31" y="339.26" width="195.72" height="4.78" style="fill: #1E368C; transform-origin: 271.17px 341.65px; transform: rotate(171.18deg);" class="animable" id="elw62utbmkdf"></rect></g><g id="elbzgtmn7i7bh"><rect x="174.23" y="345.2" width="195.72" height="4.78" style="fill: #1E368C; transform-origin: 272.09px 347.59px; transform: rotate(171.18deg);" class="animable" id="ely5gkf9cz7i8"></rect></g><g id="eluxdzkqqmzul"><rect x="174.12" y="349.68" width="59.92" height="4.78" style="isolation: isolate; opacity: 0.2; transform-origin: 204.08px 352.07px; transform: rotate(171.18deg);" class="animable" id="el6jqdf5ubaz7"></rect></g><g id="el3s5nqnv3r6b"><rect x="175.04" y="355.61" width="59.92" height="4.78" style="isolation: isolate; opacity: 0.2; transform-origin: 205px 358px; transform: rotate(171.18deg);" class="animable" id="elxv5m3y6sdz"></rect></g><path d="M309.36,316.67c18.34-2.85,34.61-9.05,47.5-17.89a50.46,50.46,0,0,1,2.37-6.3,113.61,113.61,0,0,0-120.37-159,114.71,114.71,0,0,0-17.38,4c-35.34,18.72-56,73-52.19,107C173.76,283.79,226.49,329.53,309.36,316.67Z" style="fill: #1E368C; transform-origin: 269.041px 225.558px;" id="elngrjhxmpwag" class="animable"></path><g id="elrcf291ap45m"><path d="M309.36,316.67c18.34-2.85,34.61-9.05,47.5-17.89a50.46,50.46,0,0,1,2.37-6.3,113.61,113.61,0,0,0-120.37-159,114.71,114.71,0,0,0-17.38,4c-35.34,18.72-56,73-52.19,107C173.76,283.79,226.49,329.53,309.36,316.67Z" style="fill: rgb(255, 255, 255); isolation: isolate; opacity: 0.2; transform-origin: 269.041px 225.558px;" class="animable" id="elun8wgc6xq9"></path></g><path d="M309.83,149.38s18.73,22.7,22.09,57.22c0,0,9.47,1.54,15,15.1s-1.82,33.64-1.82,33.64,9.32,9.74,12.32,29.64c0,0-4.79,11.94-41.86,19.73s-79.69,2.84-116.9-24.3A57.79,57.79,0,0,0,196,251.52c-5.55-15.15-16.17-21.32-16.17-21.32s-.25-69,62.4-93.54C242.2,136.66,275.25,130.33,309.83,149.38Z" style="fill: #1E368C; transform-origin: 268.625px 221.851px;" id="elyni4fbvj2al" class="animable"></path><g id="elwrnl3w8q8zo"><path d="M187.14,206.42s6.26-47.28,61.05-68.83c0,0,67.5-1.19,94.58,44.68s10.43,97,10.43,97,12.51-57-19.1-92.13c0,0,23.47,41.15,5.65,88,0,0-29.16-2.1-41.76-7.63,0,0-1.68-47.09-21.89-64.59,0,0,7,12.64-7.17,23S210.92,242.46,187.14,206.42Z" style="fill: rgb(255, 255, 255); opacity: 0.1; transform-origin: 272.702px 208.429px;" class="animable" id="el5ngzmdi0dha"></path></g><g id="elp2jvf5va0v"><ellipse cx="256.47" cy="158.46" rx="24.26" ry="15.43" style="fill: rgb(255, 255, 255); opacity: 0.1; transform-origin: 256.47px 158.46px; transform: rotate(-8.82deg);" class="animable" id="el7fomu37voap"></ellipse></g><g id="el4mkxzs5cl1h"><path d="M241.32,181.7c-.07,2.05,2.48,3.81,5.71,3.92s5.89-1.46,6-3.51-2.49-3.8-5.71-3.92S241.39,179.66,241.32,181.7Z" style="fill: rgb(255, 255, 255); opacity: 0.1; transform-origin: 247.176px 181.905px;" class="animable" id="el5jvptgn1sa7"></path></g><g id="elcaltivnkwkm"><rect x="141.51" y="148.77" width="2" height="100.13" style="fill: rgb(38, 50, 56); transform-origin: 142.51px 198.835px; transform: rotate(-8.82deg);" class="animable" id="elbduojmtl2sl"></rect></g><g id="ela6t0tk1f9kg"><rect x="153.21" y="216.56" width="2" height="40.09" style="fill: rgb(38, 50, 56); transform-origin: 154.21px 236.605px; transform: rotate(-8.82deg);" class="animable" id="elrtp1y2yerh"></rect></g><g id="ela3trhgwcu0r"><g style="opacity: 0.4; transform-origin: 142.51px 198.835px;" class="animable" id="el7mysgc9gaql"><g id="eln10ycgs1za"><rect x="141.51" y="148.77" width="2" height="100.13" style="fill: rgb(255, 255, 255); transform-origin: 142.51px 198.835px; transform: rotate(-8.82deg);" class="animable" id="elklheq2i717r"></rect></g></g></g><g id="elm4viidbzenj"><g style="opacity: 0.4; transform-origin: 154.21px 236.605px;" class="animable" id="elvp1zd78ykwd"><g id="elvkzsjtbrwse"><rect x="153.21" y="216.56" width="2" height="40.09" style="fill: rgb(255, 255, 255); transform-origin: 154.21px 236.605px; transform: rotate(-8.82deg);" class="animable" id="elot67bt6keg8"></rect></g></g></g><path d="M135.4,153h0a1.93,1.93,0,0,0,1.6-2.19l-.67-4.3a1.9,1.9,0,0,0-2.18-1.59h0a1.92,1.92,0,0,0-1.6,2.18l.67,4.3A1.92,1.92,0,0,0,135.4,153Z" style="fill: rgb(38, 50, 56); transform-origin: 134.775px 148.958px;" id="el5p1gkw83o25" class="animable"></path><path d="M151.7,220.44h0a1.92,1.92,0,0,0,1.6-2.18l-.67-4.3a1.92,1.92,0,0,0-2.18-1.6h0a1.93,1.93,0,0,0-1.6,2.19l.67,4.3A1.91,1.91,0,0,0,151.7,220.44Z" style="fill: rgb(38, 50, 56); transform-origin: 151.075px 216.401px;" id="el19rqusdw9hq" class="animable"></path><g id="eljkkgf58abc"><g style="opacity: 0.2; transform-origin: 134.775px 148.958px;" class="animable" id="el5jlafvemhtr"><path d="M135.4,153h0a1.93,1.93,0,0,0,1.6-2.19l-.67-4.3a1.9,1.9,0,0,0-2.18-1.59h0a1.92,1.92,0,0,0-1.6,2.18l.67,4.3A1.92,1.92,0,0,0,135.4,153Z" style="fill: rgb(255, 255, 255); transform-origin: 134.775px 148.958px;" id="el4ksceg900uu" class="animable"></path></g></g><g id="elg60lbif735n"><g style="opacity: 0.2; transform-origin: 151.075px 216.401px;" class="animable" id="elq328385ahg"><path d="M151.7,220.44h0a1.92,1.92,0,0,0,1.6-2.18l-.67-4.3a1.92,1.92,0,0,0-2.18-1.6h0a1.93,1.93,0,0,0-1.6,2.19l.67,4.3A1.91,1.91,0,0,0,151.7,220.44Z" style="fill: rgb(255, 255, 255); transform-origin: 151.075px 216.401px;" id="elm95u8ohw9" class="animable"></path></g></g><path d="M160.22,258.28c.65,4.23,1.51,8.35,2.5,12.41l14.9-2.31q-1.14-5-1.94-10.11c-9.3-59.93,21.24-114.8,68.73-125.45a112.86,112.86,0,0,1,56.13,8.69l1.21.53c-17.57-12-37.94-17.54-58.57-14.34l-8.9,1.38C183.53,137,150.37,194.8,160.22,258.28Z" style="fill: rgb(38, 50, 56); transform-origin: 230.119px 198.748px;" id="elfl4v4n78iet" class="animable"></path><g id="ela7c8p0z7j"><path d="M160.22,258.28c.65,4.23,1.51,8.35,2.5,12.41l14.9-2.31q-1.14-5-1.94-10.11c-9.3-59.93,21.24-114.8,68.73-125.45a112.86,112.86,0,0,1,56.13,8.69l1.21.53c-17.57-12-37.94-17.54-58.57-14.34l-8.9,1.38C183.53,137,150.37,194.8,160.22,258.28Z" style="fill: rgb(255, 255, 255); isolation: isolate; opacity: 0.2; transform-origin: 230.119px 198.748px;" class="animable" id="elf01seaqnbuv"></path></g><g id="elgr45nkg9zs"><path d="M160.22,258.28c.65,4.23,1.51,8.35,2.5,12.41l8.89-1.38c-1-4.06-1.83-8.19-2.49-12.42-9.85-63.48,23.31-121.31,74.06-129.19l-8.9,1.38C183.53,137,150.37,194.8,160.22,258.28Z" style="fill: rgb(255, 255, 255); isolation: isolate; opacity: 0.2; transform-origin: 200.834px 199.195px;" class="animable" id="ellmglcts92f9"></path></g><path d="M157.32,293.46c-8.24-2.86-15.25-12.31-17.12-24.37s1.94-23.19,8.93-28.41c2.54-2,8.94-6.64,15.29-8.05h.05c.38-.08.76-.16,1.14-.22,12.64-2,25.11,10.77,27.85,28.43s-5.29,33.56-17.92,35.52c-.39.06-.77.11-1.16.14h0C167.85,297.08,160.34,294.6,157.32,293.46Z" style="fill: #1E368C; transform-origin: 166.861px 264.395px;" id="eloi1gm8bmu0p" class="animable"></path><g id="elyohusrpm09h"><path d="M157.32,293.46c-8.24-2.86-15.25-12.31-17.12-24.37s1.94-23.19,8.93-28.41c2.54-2,8.94-6.64,15.29-8.05h.05c.38-.08.76-.16,1.14-.22,12.64-2,25.11,10.77,27.85,28.43s-5.29,33.56-17.92,35.52c-.39.06-.77.11-1.16.14h0C167.85,297.08,160.34,294.6,157.32,293.46Z" style="isolation: isolate; opacity: 0.3; transform-origin: 166.861px 264.395px;" class="animable" id="el3i5uss6u95a"></path></g><g id="elkzipq46b3o"><path d="M164.78,294.18a15.38,15.38,0,0,1-7.22-.63c3.17,1.18,10.46,3.51,16.77,2.94h0c.39,0,.78-.08,1.17-.14,12.64-2,20.66-17.87,17.92-35.53s-15.21-30.39-27.85-28.43c-.38.06-.77.14-1.15.22h0c-6.14,1.37-12.31,5.73-15,7.83a15.26,15.26,0,0,1,6.61-2.73c11.15-1.73,22.15,9.5,24.57,25.1S175.93,292.45,164.78,294.18Z" style="isolation: isolate; opacity: 0.2; transform-origin: 171.688px 264.385px;" class="animable" id="elno68h7pzrfg"></path></g><path d="M150.83,282c-4.43-1.55-8.2-6.63-9.21-13.12s1-12.48,4.81-15.29c1.36-1.08,4.81-3.57,8.23-4.33h0l.62-.11c6.8-1.06,13.51,5.79,15,15.29s-2.84,18.07-9.64,19.12c-.21,0-.41.06-.62.08h0C156.5,283.93,152.46,282.6,150.83,282Z" style="fill: rgb(38, 50, 56); transform-origin: 155.967px 266.361px;" id="elh7dcde2ht89" class="animable"></path><g id="elblhnt00elj5"><path d="M150.83,282c-4.43-1.55-8.2-6.63-9.21-13.12s1-12.48,4.81-15.29c1.36-1.08,4.81-3.57,8.23-4.33h0l.62-.11c6.8-1.06,13.51,5.79,15,15.29s-2.84,18.07-9.64,19.12c-.21,0-.41.06-.62.08h0C156.5,283.93,152.46,282.6,150.83,282Z" style="fill: rgb(255, 255, 255); opacity: 0.1; transform-origin: 155.967px 266.361px;" class="animable" id="elv33ob4gqkx"></path></g><g id="elkfb7kiw0k3"><path d="M154.85,282.37A8.23,8.23,0,0,1,151,282c1.72.63,5.63,1.88,9,1.58h0l.61-.08c6.81-1.06,11.13-9.61,9.66-19.12s-8.19-16.35-15-15.3c-.19,0-.4.08-.6.13h0a22.87,22.87,0,0,0-8.08,4.2,8.35,8.35,0,0,1,3.55-1.46c6-.93,11.93,5.12,13.23,13.51S160.86,281.44,154.85,282.37Z" style="isolation: isolate; opacity: 0.3; transform-origin: 158.574px 266.3px;" class="animable" id="el4a0s0rwvg9m"></path></g><g id="eluc3vdpqp0ul"><path d="M149.9,281.6a10.39,10.39,0,0,1-1.48-.84A10,10,0,0,0,149.9,281.6Z" style="fill: rgb(255, 255, 255); opacity: 0.2; transform-origin: 149.16px 281.18px;" class="animable" id="elbmreffy5937"></path></g><g id="elbltjct1noua"><path d="M147.67,280.2a12.74,12.74,0,0,1-1.43-1.33A11.93,11.93,0,0,0,147.67,280.2Z" style="fill: rgb(255, 255, 255); opacity: 0.2; transform-origin: 146.955px 279.535px;" class="animable" id="elsr4r6kgt5vq"></path></g><g id="el95v04cf1rr"><path d="M146.24,278.87a13.61,13.61,0,0,1-1.3-1.59A12.83,12.83,0,0,0,146.24,278.87Z" style="fill: rgb(255, 255, 255); opacity: 0.2; transform-origin: 145.59px 278.075px;" class="animable" id="elqvtp4ga1c98"></path></g><g id="ell1z6v16m8g"><path d="M153,278.6h0a1.25,1.25,0,0,0,1-1.43l-3-19.54a1.26,1.26,0,0,0-1.43-1.05h0a1.25,1.25,0,0,0-1,1.43l3,19.54A1.26,1.26,0,0,0,153,278.6Z" style="isolation: isolate; opacity: 0.3; transform-origin: 151.285px 267.59px;" class="animable" id="el63nycymmozw"></path></g><path d="M180,286.29s42.74,51,128,37.79c41.12-6.38,54-27.76,54.84-29.35l0-.06,0,0-2.06-5.94S348.8,305,317.52,309.9c-44.59,6.92-91.06,1.87-125.14-30.76l-7.31,1.13Z" style="fill: rgb(38, 50, 56); transform-origin: 271.42px 302.703px;" id="elzhsim7pie6n" class="animable"></path><g id="elq8wvkkz2d1"><path d="M180,286.29s42.74,51,128,37.79c41.12-6.38,54-27.76,54.84-29.35l0-.06,0,0-2.06-5.94S348.8,305,317.52,309.9c-44.59,6.92-91.06,1.87-125.14-30.76l-7.31,1.13Z" style="fill: rgb(255, 255, 255); isolation: isolate; opacity: 0.2; transform-origin: 271.42px 302.703px;" class="animable" id="elpji6w60hzhg"></path></g><g id="el1ufudk5j74w"><path d="M180,286.29s42.74,51,128,37.79c41.12-6.38,54-27.76,54.84-29.35-1.1,1.32-13.65,15.76-44.47,20.54-33.68,5.23-97.19,8.4-133.29-35Z" style="fill: rgb(255, 255, 255); isolation: isolate; opacity: 0.2; transform-origin: 271.42px 303.268px;" class="animable" id="elyz2w433rce"></path></g><path d="M287.51,333.73l48.83-7.58A4.51,4.51,0,0,0,340.1,321h0a4.51,4.51,0,0,0-5.14-3.76l-48.83,7.58a4.51,4.51,0,0,0-3.76,5.14h0A4.51,4.51,0,0,0,287.51,333.73Z" style="fill: rgb(38, 50, 56); transform-origin: 311.236px 325.485px;" id="elta7nnixz94" class="animable"></path><g id="el7va5nxvjm19"><path d="M287.51,333.73l48.83-7.58A4.51,4.51,0,0,0,340.1,321h0a4.51,4.51,0,0,0-5.14-3.76l-48.83,7.58a4.51,4.51,0,0,0-3.76,5.14h0A4.51,4.51,0,0,0,287.51,333.73Z" style="fill: rgb(255, 255, 255); opacity: 0.2; transform-origin: 311.236px 325.485px;" class="animable" id="el1vncj84an6t"></path></g><path d="M232.11,339.79l52.84-8.2a2,2,0,0,0-.61-3.95l-52.45,8.14c-24-5.84-39.92-22.42-42.09-24.77l-16.92-49.64a2,2,0,1,0-3.79,1.29l17,50a2.26,2.26,0,0,0,.39.67c.71.81,17.62,19.93,44.81,26.4A2,2,0,0,0,232.11,339.79Z" style="fill: rgb(38, 50, 56); transform-origin: 227.774px 299.909px;" id="elteq20cb66w" class="animable"></path><g id="elkfeu2dq1wp"><g style="opacity: 0.4; transform-origin: 227.774px 299.909px;" class="animable" id="elqedtv4nat"><path d="M232.11,339.79l52.84-8.2a2,2,0,0,0-.61-3.95l-52.45,8.14c-24-5.84-39.92-22.42-42.09-24.77l-16.92-49.64a2,2,0,1,0-3.79,1.29l17,50a2.26,2.26,0,0,0,.39.67c.71.81,17.62,19.93,44.81,26.4A2,2,0,0,0,232.11,339.79Z" style="fill: rgb(255, 255, 255); transform-origin: 227.774px 299.909px;" id="el6fssii5bowt" class="animable"></path></g></g><path d="M164.74,255.72l6,17.6a2.18,2.18,0,0,0,.46.78,2.24,2.24,0,0,0,2.36.61l2.78-1a2.21,2.21,0,0,0,1.38-2.82l-6-17.61a2.21,2.21,0,0,0-2.82-1.38l-2,.68h0l-.82.28A2.22,2.22,0,0,0,164.74,255.72Z" style="fill: rgb(38, 50, 56); transform-origin: 171.223px 263.301px;" id="elkr6it9bplb7" class="animable"></path><g id="elot70matsch"><path d="M164.74,255.72l6,17.6a2.18,2.18,0,0,0,.46.78,2,2,0,0,0,.35-.09l2.38-.82a2.22,2.22,0,0,0,1.38-2.82L169.73,254a2.21,2.21,0,0,0-2.81-1.39h0l-.82.28A2.22,2.22,0,0,0,164.74,255.72Z" style="fill: rgb(255, 255, 255); opacity: 0.2; transform-origin: 170.022px 263.296px;" class="animable" id="eljqdu8givfvd"></path></g><g id="eli4a3s8xcfxk"><path d="M165.7,257.15a1.72,1.72,0,1,0,3.35-.52,1.72,1.72,0,1,0-3.35.52Z" style="fill: rgb(255, 255, 255); opacity: 0.2; transform-origin: 167.375px 256.89px;" class="animable" id="ellfm6mp35nag"></path></g><g id="eld2riewka6m4"><path d="M170.13,269.81a1.72,1.72,0,1,0,1.36-2.28A1.89,1.89,0,0,0,170.13,269.81Z" style="fill: rgb(255, 255, 255); opacity: 0.2; transform-origin: 171.772px 269.23px;" class="animable" id="el3ama6vyyx06"></path></g></g><defs>     <filter id="active" height="200%">         <feMorphology in="SourceAlpha" result="DILATED" operator="dilate" radius="2"></feMorphology>                <feFlood flood-color="#32DFEC" flood-opacity="1" result="PINK"></feFlood>        <feComposite in="PINK" in2="DILATED" operator="in" result="OUTLINE"></feComposite>        <feMerge>            <feMergeNode in="OUTLINE"></feMergeNode>            <feMergeNode in="SourceGraphic"></feMergeNode>        </feMerge>    </filter>    <filter id="hover" height="200%">        <feMorphology in="SourceAlpha" result="DILATED" operator="dilate" radius="2"></feMorphology>                <feFlood flood-color="#ff0000" flood-opacity="0.5" result="PINK"></feFlood>        <feComposite in="PINK" in2="DILATED" operator="in" result="OUTLINE"></feComposite>        <feMerge>            <feMergeNode in="OUTLINE"></feMergeNode>            <feMergeNode in="SourceGraphic"></feMergeNode>        </feMerge>            <feColorMatrix type="matrix" values="0   0   0   0   0                0   1   0   0   0                0   0   0   0   0                0   0   0   1   0 "></feColorMatrix>    </filter></defs></svg>